<svg xmlns="http://www.w3.org/2000/svg" xmlns:xlink="http://www.w3.org/1999/xlink" viewBox="0 0 148 148"><defs><style>.a{fill:rgba(72,135,250,0.1);}.b{fill:#39bed3;opacity:0.1;}.c{clip-path:url(#a);}.d,.e{fill:#fff;}.e,.f,.g,.h,.i{fill-rule:evenodd;}.f{fill:#999;}.g{fill:#c03;}.h{fill:#9de8f4;}.i{fill:#34629a;}</style><clipPath id="a"><circle class="a" cx="74" cy="74" r="74" transform="translate(679 765.426)"/></clipPath></defs><g transform="translate(-175 -572)"><g transform="translate(-504 -193)"><path class="b" d="M74,0A74,74,0,1,1,0,74,74,74,0,0,1,74,0Z" transform="translate(679 765)"/><g class="c" transform="translate(0 -0.426)"><g transform="translate(700 792)"><rect class="d" width="91.778" height="45.25" transform="translate(11.013 27.593)"/><path class="e" d="M11.013,385.5h91.778v44.512H76.574V393.441h-17.2v36.571H58.119V393.441H39.9v36.571H11.013v-8.14H0a3.825,3.825,0,0,1,.279-.3,12.268,12.268,0,0,0,1.177-1.556h9.557Z" transform="translate(0 -308.586)"/><path class="e" d="M77.9,19.6h28.551V39.212H77.9Z" transform="translate(-62.358 -15.689)"/><path class="e" d="M247.359,14.525a10.914,10.914,0,0,1-.559-3.472,11.953,11.953,0,0,1,.16-1.9,10.714,10.714,0,0,1,3.093-5.926A10.741,10.741,0,0,1,257.893,0a10.62,10.62,0,0,1,7.8,3.232,10.637,10.637,0,0,1,3.252,7.821,10.53,10.53,0,0,1-3.252,7.8,11.007,11.007,0,0,1-15.622,0A10.521,10.521,0,0,1,247.359,14.525Z" transform="translate(-197.559 0)"/><rect class="d" width="7.223" height="12.629" transform="translate(91.059 38.148)"/><rect class="d" width="7.223" height="12.131" transform="translate(91.059 53.071)"/><rect class="d" width="6.903" height="12.629" transform="translate(81.722 38.148)"/><rect class="d" width="6.903" height="12.131" transform="translate(81.722 53.071)"/><path class="e" d="M279.9,22.5h-5.167v3.851H270.9v5.187h3.831v3.791H279.9V31.538h3.811V26.351H279.9Z" transform="translate(-216.851 -18.011)"/><rect class="d" width="7.761" height="6.963" transform="translate(30.546 14.545)"/><rect class="d" width="7.402" height="7.262" transform="translate(21.249 5.966)"/><rect class="d" width="7.761" height="7.262" transform="translate(30.546 5.966)"/><rect class="d" width="7.402" height="6.963" transform="translate(21.249 14.545)"/><rect class="d" width="6.903" height="12.629" transform="translate(17.797 38.148)"/><rect class="d" width="7.223" height="12.131" transform="translate(27.114 53.071)"/><rect class="d" width="7.223" height="12.629" transform="translate(27.114 38.148)"/><rect class="d" width="6.903" height="12.131" transform="translate(17.797 53.071)"/><rect class="d" width="7.203" height="12.629" transform="translate(59.616 38.148)"/><rect class="d" width="7.203" height="12.131" transform="translate(59.616 53.071)"/><rect class="d" width="6.903" height="12.629" transform="translate(50.278 38.148)"/><rect class="d" width="6.903" height="12.131" transform="translate(50.278 53.071)"/><rect class="d" width="6.903" height="12.629" transform="translate(17.737 85.253)"/><rect class="d" width="7.203" height="12.629" transform="translate(27.054 85.253)"/><rect class="d" width="6.903" height="12.131" transform="translate(17.737 100.197)"/><rect class="d" width="7.203" height="12.131" transform="translate(27.054 100.197)"/><rect class="d" width="7.223" height="12.629" transform="translate(91 85.253)"/><rect class="d" width="6.923" height="12.629" transform="translate(81.682 85.253)"/><rect class="d" width="6.923" height="12.131" transform="translate(81.682 100.197)"/><rect class="d" width="7.223" height="12.131" transform="translate(91 100.197)"/><path class="f" d="M226.307,45.9a11.953,11.953,0,0,0-.16,1.9,10.383,10.383,0,0,0,.559,3.472H221V45.9Z" transform="translate(-176.907 -36.742)"/><path class="g" d="M279.9,22.5v3.851h3.811v5.187H279.9v3.791h-5.167V31.538H270.9V26.351h3.831V22.5Z" transform="translate(-216.851 -18.011)"/><path class="h" d="M129.262,145.36h-18.2V108.789h18.2Zm1.257,0V108.789h17.2V145.36Zm31.7-68.354h7.222V89.136h-7.222Zm0-2.294V62.082h7.222V74.711Zm-2.414,0h-6.9V62.082h6.9Zm-6.923,2.294h6.9V89.136h-6.9ZM101.709,29.9h7.761v7.262h-7.761Zm-1.9,7.262h-7.4V29.9h7.4Zm9.657,1.317v6.963h-7.761V38.479Zm-17.059,0h7.4v6.963h-7.4ZM105.5,74.711H98.277V62.082H105.5Zm0,2.294V89.136H98.277V77.006ZM95.863,62.082V74.711h-6.9V62.082Zm34.915,14.924h7.2V89.136h-7.2Zm0-2.294V62.082h7.2V74.711ZM88.96,77.006h6.9V89.136h-6.9Zm39.385-14.924V74.711h-6.9V62.082Zm-6.9,14.924h6.9V89.136h-6.9Zm-16,32.182v12.629h-7.2V109.188Zm-9.637,0v12.629H88.9V109.188Zm2.414,27.074V124.132h7.2v12.131ZM88.9,124.132h6.9v12.131H88.9Zm73.262-14.944h7.223v12.629h-7.223Zm-2.394,0v12.629h-6.923V109.188Zm0,14.944v12.131h-6.923V124.132Zm2.394,0h7.223v12.131h-7.223Z" transform="translate(-71.163 -23.934)"/><path class="i" d="M72.991,24.484H135.22v4.07H36.1v-4.07H72.991Zm58.7,49.32h2.554v4.07H37.3V73.8h94.391ZM72.991,4.871H42.724V1.2H74.846V4.851H72.991Z" transform="translate(-28.897 -0.961)"/></g></g></g></g></svg>