<svg xmlns="http://www.w3.org/2000/svg" xmlns:xlink="http://www.w3.org/1999/xlink" viewBox="0 0 144.952 148"><defs><style>.a{fill:#39bed3;}.b{clip-path:url(#a);}.c{clip-path:url(#b);}.d{fill:rgba(57,190,211,0.96);opacity:0.1;}.d,.e,.f,.g,.h,.i,.j,.k,.l,.m,.n,.o,.p,.q,.r{fill-rule:evenodd;}.e{fill:#753626;}.f{fill:#333;}.g{fill:#fff;}.h{fill:#dcdade;}.i{fill:#c3c3c3;}.j{fill:#eeedef;}.k{fill:#e09856;}.l{fill:#fbcf4d;}.m{fill:#95552b;}.n{fill:#396;}.o{fill:#ecb177;}.p{fill:#371e1a;}.q,.r{fill:none;stroke-linecap:round;stroke-linejoin:round;stroke-miterlimit:3;stroke-width:1.069px;}.q{stroke:#4e4036;}.r{stroke:#915246;}</style><clipPath id="a"><rect class="a" width="144.952" height="148" transform="translate(120.927)"/></clipPath><clipPath id="b"><path d="M244.652,21.227Q223.425,0,193.394,0t-51.24,21.227q-21.227,21.227-21.227,51.24t21.227,51.258q21.227,21.227,51.24,21.227t51.258-21.227q21.227-21.227,21.227-51.258Q265.879,42.472,244.652,21.227Z" transform="translate(-120.927)"/></clipPath></defs><g transform="translate(-745.073 -572)"><g class="b" transform="translate(624.147 572)"><g transform="translate(120.927)"><g class="c"><path class="d" d="M244.652,123.725q-21.227,21.227-51.258,21.227t-51.24-21.227q-21.227-21.2-21.227-51.258,0-30.022,21.227-51.24T193.394,0q30.022,0,51.258,21.227t21.227,51.24Q265.879,102.516,244.652,123.725Z" transform="translate(-120.927)"/></g><g class="c"><path class="e" d="M234.782,97.591a10.443,10.443,0,0,1,2.424,2.852,7.21,7.21,0,0,1,.089,7.111q-2.486,5.775,1.444,8.876,6.5,6.844,5.026,11.175l-.267.214a2.5,2.5,0,0,0-.517,2.816,10.322,10.322,0,0,1,1.658,2.852,4.27,4.27,0,0,1,.25,1.943,178.329,178.329,0,0,1-61.221,0,3.924,3.924,0,0,1,.232-1.978,10.582,10.582,0,0,1,1.658-2.852,2.533,2.533,0,0,0-.535-2.816q-2.246-4.384,4.224-11.549c2.513-2.05,2.852-4.973.98-8.787a7.071,7.071,0,0,1-.285-7.058,10.973,10.973,0,0,1,3.137-3.547c.125.143.232.267.356.392a7.134,7.134,0,0,0,.57.5,2.083,2.083,0,0,0,1.8.392,1.245,1.245,0,0,0,.356-.143,29.1,29.1,0,0,0,4.9,11.959c.089.143.2.267.285.392a22.733,22.733,0,0,0,1.8,2.192c.018.018.036.053.071.071a.313.313,0,0,1,.071.089,14.546,14.546,0,0,0,21.886.125c.089-.089.16-.178.25-.267a25.574,25.574,0,0,0,1.818-2.21c.089-.125.178-.25.267-.392.517-.731.98-1.461,1.426-2.228A31.532,31.532,0,0,0,232.429,98a2.38,2.38,0,0,0,.321.125,2.168,2.168,0,0,0,1.818-.392A1.109,1.109,0,0,0,234.782,97.591Z" transform="translate(-141.819 -32.271)"/></g><g class="c"><path class="f" d="M249.759,177.34h-.481a2.763,2.763,0,0,1-.3.784q-.374.7-.909.7t-.909-.7a2.736,2.736,0,0,1-.285-.784,4.167,4.167,0,0,1,.285-2.584q.374-.7.909-.7a.107.107,0,0,1,.071.018V162.4l-2.834-3.885-2.834,3.85v11.995a.885.885,0,0,1,.624-.285q.535,0,.909.7a3.546,3.546,0,0,1,.374,1.693,4.571,4.571,0,0,1-.089.891,3.4,3.4,0,0,1-.285.784q-.374.7-.909.7t-.909-.7a2.736,2.736,0,0,1-.285-.784h-.659l.071-11.05V165.4l.018-3.279,2.959-4.794V151c.749.3,1.479.624,2.21.927v5.614l2.976,4.6Zm-72.146-25.683v8.448H175.4v-7.521C176.133,152.281,176.882,151.96,177.612,151.657Z" transform="translate(-139.08 -50.317)"/><path class="g" d="M192.079,137.918c.57-.214,1.158-.446,1.747-.659v13.581h-1.034l1.034.25v42.632h-3.9l-2.246-1.123q-5.694-13.822-11.21-28.837h0l-.321-.856,16.646-12.066-10.587-1.016A92.148,92.148,0,0,1,192.079,137.918Zm20.371,55.821V137.276c.588.214,1.158.428,1.747.659a90.924,90.924,0,0,1,9.874,11.923l-10.587,1.016,16.646,12.066q-5.881,16.094-11.977,30.816h-5.7Zm4.937-54.609q9.41,3.609,18.268,7.272v6.327l-2.959,4.794-.018,3.279-.285.731-14.864-9.642,8.573-.945a92.268,92.268,0,0,0-5.792-8.145c-.945-1.212-1.818-2.3-2.638-3.3C217.584,139.379,217.477,139.255,217.388,139.13Zm-29,.2c-.82,1-1.693,2.1-2.638,3.3a92.273,92.273,0,0,0-5.792,8.145l8.573.945-14.864,9.642,12.476,30.495-36.59-18.286,1.978-9.945a21.667,21.667,0,0,1,3.9-8.8,14.616,14.616,0,0,1,5.579-4.349c1.087-.481,2.192-.945,3.315-1.408.82-.356,1.64-.7,2.477-1.052v13.242a6.028,6.028,0,1,0,7.093,5.935,6.159,6.159,0,0,0-.428-2.317,6.1,6.1,0,0,0-1.337-1.96,5.818,5.818,0,0,0-3.119-1.658V147.061Q178.374,143.185,188.39,139.326Zm30.833,54.413,13.171-32.206.285.178-.071,11.05h.659a2.737,2.737,0,0,0,.285.784q.374.7.909.7t.909-.7a2.736,2.736,0,0,0,.285-.784,4.572,4.572,0,0,0,.089-.891,3.546,3.546,0,0,0-.374-1.693q-.374-.7-.909-.7a.846.846,0,0,0-.624.285V157.808l2.834-3.85,2.834,3.885v11.674c-.018,0-.053-.018-.071-.018q-.535,0-.909.7a3.547,3.547,0,0,0-.374,1.693,4.57,4.57,0,0,0,.089.891,2.736,2.736,0,0,0,.285.784q.374.7.909.7t.909-.7l.784-.784-.3-15.238-2.976-4.6v-5.614c2.5,1.034,4.955,2.085,7.379,3.137q7.272,3.262,9.482,13.153l2.157,10.8-18.108,19.32Z" transform="translate(-130.466 -45.739)"/><path class="h" d="M230.179,194.068q6.1-14.73,11.977-30.816l-16.646-12.066,10.587-1.016a90.922,90.922,0,0,0-9.874-11.923c1.069.41,2.139.8,3.208,1.212.089.125.2.25.285.374.82,1,1.693,2.1,2.638,3.3a92.274,92.274,0,0,1,5.792,8.145l-8.573.945,14.864,9.642-13.171,32.206h-1.087Zm-29.728-54.413c1.23-.463,2.46-.945,3.689-1.408a90.92,90.92,0,0,0-9.874,11.923l10.587,1.016-16.646,12.066.321.855h0q5.507,15,11.21,28.837l-1.515-.749L185.747,161.7l14.864-9.642-8.573-.945a92.278,92.278,0,0,1,5.792-8.145Q199.221,141.153,200.451,139.656Z" transform="translate(-142.527 -46.068)"/><path class="i" d="M175.136,164.657V170.4a5.818,5.818,0,0,1,3.119,1.658,5.727,5.727,0,0,1,1.764,4.277,6.024,6.024,0,1,1-10.284-4.26,5.75,5.75,0,0,1,3.19-1.675v-5.721h2.21Z" transform="translate(-136.603 -54.869)"/><path class="j" d="M274.072,172.569v.927l-.3-.2Z" transform="translate(-171.858 -57.505)"/><path class="k" d="M215.952,135.978v-5.026c.339-.125.677-.25,1-.374l.927-12.3h14.757l.927,12.3c.339.125.677.249,1,.374v5.026l-9.214,8.412h-.178Z" transform="translate(-152.592 -39.415)"/><path class="l" d="M234.576,144.823V196.26H215.952V144.823l9.214,8.412h.178Z" transform="translate(-152.592 -48.26)"/></g><g class="c"><path class="m" d="M233.864,79.472c.125-.107.267-.214.392-.339a5.811,5.811,0,0,0,.945-1.212c.107-.178.2-.356.285-.535a8.087,8.087,0,0,0,.535-1.444,7.048,7.048,0,0,0,.107-3.636,3.031,3.031,0,0,0-.214-.606,2.14,2.14,0,0,0-1.408-1.319,2.014,2.014,0,0,0-1.248.089c-.053-.41-.143-.855-.25-1.355a18.936,18.936,0,0,0-2.317-5.864q-5-8.288-16.807-8.662c-.25,0-.481.018-.731.018q-11.816.4-16.825,8.68a19.172,19.172,0,0,0-2.3,5.864c-.107.517-.2.98-.267,1.426a2.035,2.035,0,0,0-1.5-.214,2.14,2.14,0,0,0-1.408,1.319,3.487,3.487,0,0,0-.214.606,7.055,7.055,0,0,0,.107,3.636,11.045,11.045,0,0,0,.392,1.158,5.931,5.931,0,0,0,.428.82,7.363,7.363,0,0,0,.57.82A10.763,10.763,0,0,0,189,82.27a7.115,7.115,0,0,0,.285,7.058c1.871,3.814,1.533,6.737-.98,8.787q-6.47,7.165-4.224,11.549a7.535,7.535,0,0,1-2.281-3.511,5.812,5.812,0,0,1-.232-1.6c-.018-2.157,1.052-4.723,3.19-7.735,1.6-2.6,1.729-4.687.339-6.274a17.736,17.736,0,0,1-4.153-8.181q-.615-4.144,3.44-10,3.342-4.171,6.862-16.54a21.171,21.171,0,0,1,1.355-3.1c3.244-5.953,9.2-9.286,17.894-10.052.838-.089,1.711-.16,2.6-.2,1.105-.018,2.192.018,3.3.089Q229.2,43.817,234.06,52.755a19.221,19.221,0,0,1,1.355,3.083q3.529,12.378,6.88,16.54,4.064,5.855,3.44,10a17.677,17.677,0,0,1-4.153,8.163c-1.39,1.586-1.283,3.689.321,6.274,2.139,3.012,3.208,5.579,3.19,7.735a5.782,5.782,0,0,1-.232,1.586,8.026,8.026,0,0,1-2.032,3.3q1.47-4.331-5.026-11.175-3.957-3.1-1.444-8.876a7.207,7.207,0,0,0-.089-7.111A10.1,10.1,0,0,0,233.864,79.472Z" transform="translate(-140.901 -14.151)"/><path class="n" d="M239.7,76.539a3.6,3.6,0,0,0-1.069.713q-3.85-11.041-18.411-11.727-14.356-.08-19.053,11.87l-.071-.071a2.662,2.662,0,0,0-.25-.214,3.48,3.48,0,0,0-.642-.446c.071-.428.143-.909.267-1.426a19.351,19.351,0,0,1,2.3-5.864q5-8.288,16.825-8.68c.232,0,.481-.018.731-.018q11.817.374,16.807,8.662a19.2,19.2,0,0,1,2.317,5.864A13.391,13.391,0,0,1,239.7,76.539Z" transform="translate(-147.345 -20.219)"/><path class="o" d="M198.6,79.06a3.48,3.48,0,0,1,.642.446,3.1,3.1,0,0,0,.25.214l.071.071q4.705-11.95,19.053-11.87,14.543.668,18.411,11.727a3.392,3.392,0,0,1,1.069-.713,2.014,2.014,0,0,1,1.248-.089,2.14,2.14,0,0,1,1.408,1.319,3.49,3.49,0,0,1,.214.606,7.055,7.055,0,0,1-.107,3.636,8.637,8.637,0,0,1-.535,1.444,3.767,3.767,0,0,1-.285.535,5.81,5.81,0,0,1-.945,1.212,3.563,3.563,0,0,1-.392.339,1.362,1.362,0,0,1-.2.143,2.109,2.109,0,0,1-1.818.392,2.377,2.377,0,0,1-.321-.125,31.242,31.242,0,0,1-3.493,9.713c-.446.766-.909,1.5-1.426,2.228-.089.143-.178.267-.267.392a25.574,25.574,0,0,1-1.818,2.21c-.089.089-.16.178-.25.267a14.546,14.546,0,0,1-21.886-.125c-.018-.036-.053-.053-.071-.089l-.071-.071a22.276,22.276,0,0,1-1.8-2.192c-.089-.125-.2-.25-.285-.392a29.9,29.9,0,0,1-1.622-2.584,30.641,30.641,0,0,1-3.279-9.375,1.937,1.937,0,0,1-2.157-.25,5.643,5.643,0,0,1-.927-.891,4.482,4.482,0,0,1-.57-.82,7.169,7.169,0,0,1-.428-.82,7.368,7.368,0,0,1-.392-1.158,7.048,7.048,0,0,1-.107-3.636,3.032,3.032,0,0,1,.214-.606,2.14,2.14,0,0,1,1.408-1.319A2.069,2.069,0,0,1,198.6,79.06Z" transform="translate(-145.718 -22.633)"/></g><g class="c"><path class="p" d="M214.375,85.2A1.9,1.9,0,0,1,215,83.736a1.978,1.978,0,0,1,1.461-.606,1.951,1.951,0,0,1,1.461.606,2.049,2.049,0,0,1,.606,1.461,2.1,2.1,0,0,1-2.067,2.085,2.131,2.131,0,0,1-2.085-2.085ZM232.91,83.13a1.951,1.951,0,0,1,1.461.606,2.049,2.049,0,0,1,.606,1.461,2.1,2.1,0,0,1-2.067,2.085,1.93,1.93,0,0,1-1.461-.624,2,2,0,0,1-.624-1.461,2.1,2.1,0,0,1,2.085-2.067Z" transform="translate(-152.066 -27.702)"/><path class="q" d="M230.6,78.582q2.3-2.085,4.277,0m-20.746-.036q2.3-2.085,4.277,0" transform="translate(-151.986 -25.827)"/><path class="r" d="M222.955,107.241a12.55,12.55,0,0,0,10.016,0" transform="translate(-154.926 -35.736)"/></g></g></g></g></svg>