<svg xmlns="http://www.w3.org/2000/svg" xmlns:xlink="http://www.w3.org/1999/xlink" viewBox="0 0 304.144 340.94"><defs><style>.a,.b{fill:#fff;}.b,.c,.d,.e,.f,.g,.h{fill-rule:evenodd;}.c{fill:#999;}.d{fill:#c03;}.e{fill:#9de8f4;}.f{fill:#34629a;}.g{fill:#763e34;}.h{fill:url(#a);}</style><linearGradient id="a" x1="0.503" y1="0.708" x2="0.807" y2="0.068" gradientUnits="objectBoundingBox"><stop offset="0" stop-color="#149c4a"/><stop offset="1" stop-color="#71e874"/></linearGradient></defs><g transform="translate(-1121 -105.625)"><g transform="translate(1128.562 105.625)"><g transform="translate(0 0)"><rect class="a" width="256.01" height="126.224" transform="translate(30.721 76.97)"/><path class="b" d="M30.721,385.5h256.01V509.665H213.6V407.65H165.627V509.665h-3.506V407.65H111.309V509.665H30.721V486.958H0a10.685,10.685,0,0,1,.779-.835,34.211,34.211,0,0,0,3.284-4.341H30.721Z" transform="translate(0 -170.952)"/><path class="b" d="M77.9,19.6h79.641V74.308H77.9Z" transform="translate(-34.545 -8.692)"/><path class="b" d="M248.358,40.516a30.444,30.444,0,0,1-1.558-9.684,33.344,33.344,0,0,1,.445-5.287,29.887,29.887,0,0,1,8.627-16.529A29.961,29.961,0,0,1,277.744,0,29.623,29.623,0,0,1,299.5,9.016a29.673,29.673,0,0,1,9.072,21.817A29.374,29.374,0,0,1,299.5,52.593a30.7,30.7,0,0,1-43.577,0A29.346,29.346,0,0,1,248.358,40.516Z" transform="translate(-109.445 0)"/><rect class="a" width="20.147" height="35.229" transform="translate(254.007 106.411)"/><rect class="a" width="20.147" height="33.838" transform="translate(254.007 148.041)"/><rect class="a" width="19.256" height="35.229" transform="translate(227.96 106.411)"/><rect class="a" width="19.256" height="33.838" transform="translate(227.96 148.041)"/><path class="b" d="M296,22.5H281.586V33.241H270.9v14.47h10.686V58.286H296V47.711h10.63V33.241H296Z" transform="translate(-120.132 -9.978)"/><rect class="a" width="21.65" height="19.423" transform="translate(85.207 40.572)"/><rect class="a" width="20.648" height="20.258" transform="translate(59.272 16.641)"/><rect class="a" width="21.65" height="20.258" transform="translate(85.207 16.641)"/><rect class="a" width="20.648" height="19.423" transform="translate(59.272 40.572)"/><rect class="a" width="19.256" height="35.229" transform="translate(49.644 106.411)"/><rect class="a" width="20.147" height="33.838" transform="translate(75.634 148.041)"/><rect class="a" width="20.147" height="35.229" transform="translate(75.634 106.411)"/><rect class="a" width="19.256" height="33.838" transform="translate(49.644 148.041)"/><rect class="a" width="20.091" height="35.229" transform="translate(166.295 106.411)"/><rect class="a" width="20.091" height="33.838" transform="translate(166.295 148.041)"/><rect class="a" width="19.256" height="35.229" transform="translate(140.249 106.411)"/><rect class="a" width="19.256" height="33.838" transform="translate(140.249 148.041)"/><rect class="a" width="19.256" height="35.229" transform="translate(49.477 237.811)"/><rect class="a" width="20.091" height="35.229" transform="translate(75.467 237.811)"/><rect class="a" width="19.256" height="33.838" transform="translate(49.477 279.496)"/><rect class="a" width="20.091" height="33.838" transform="translate(75.467 279.496)"/><rect class="a" width="20.147" height="35.229" transform="translate(253.84 237.811)"/><rect class="a" width="19.312" height="35.229" transform="translate(227.849 237.811)"/><rect class="a" width="19.312" height="33.838" transform="translate(227.849 279.496)"/><rect class="a" width="20.147" height="33.838" transform="translate(253.84 279.496)"/><path class="c" d="M235.8,45.9a33.342,33.342,0,0,0-.445,5.287,28.964,28.964,0,0,0,1.558,9.684H221V45.9Z" transform="translate(-98.004 -20.355)"/><path class="d" d="M296,22.5V33.241h10.63v14.47H296V58.286H281.586V47.711H270.9V33.241h10.686V22.5Z" transform="translate(-120.132 -9.978)"/><path class="e" d="M201.489,351.972H150.732V249.958h50.757Zm3.506,0V249.958h47.974V351.972ZM293.43,161.3h20.147v33.838H293.43Zm0-6.4V119.671h20.147V154.9Zm-6.734,0H267.439V119.671H286.7Zm-19.312,6.4H286.64v33.838H267.384ZM124.63,29.9H146.28V50.158H124.63Zm-5.287,20.258H98.7V29.9h20.648Zm26.937,3.673V73.255H124.63V53.831Zm-47.584,0h20.648V73.255H98.7ZM135.2,154.9H115.058V119.671H135.2Zm0,6.4v33.838H115.058V161.3Zm-26.881-41.629V154.9H89.067V119.671Zm97.4,41.629H225.81v33.838H205.719Zm0-6.4V119.671H225.81V154.9ZM89.067,161.3h19.256v33.838H89.067Zm109.862-41.629V154.9H179.672V119.671ZM179.672,161.3h19.256v33.838H179.672Zm-44.635,89.771V286.3H114.946V251.071Zm-26.881,0V286.3H88.9V251.071Zm6.734,75.523V292.756h20.091v33.838ZM88.9,292.756h19.256v33.838H88.9Zm204.363-41.685H313.41V286.3H293.263Zm-6.679,0V286.3H267.272V251.071Zm0,41.685v33.838H267.272V292.756Zm6.679,0H313.41v33.838H293.263Z" transform="translate(-39.423 -13.259)"/><path class="f" d="M139.005,66.149H312.591V77.5H36.1V66.149H139.005ZM302.74,203.726h7.124V215.08H39.439V203.726h263.3ZM139.005,11.44H54.577V1.2h89.6V11.385h-5.176Z" transform="translate(-16.009 -0.532)"/></g></g><g transform="translate(1121 314.811)"><path class="g" d="M38.568,118.453c-.483-5.223-.79-10.666-.79-16.328-9.612-1.712-17.557-7.023-23.79-15.845-.088-.088-.088-.219-.088-.4a.444.444,0,0,1,.176-.307.344.344,0,0,1,.351-.044.444.444,0,0,1,.307.176c6.057,8.6,13.738,13.738,23.044,15.494.044-4.96.219-10.1.571-15.362V85.71c.263-3.819.658-7.769,1.1-11.807.307-2.546.614-5.092.966-7.637-2.809-.044-5.574-1.492-8.252-4.345a.5.5,0,0,1,.7-.7C35.407,63.9,38,65.256,40.63,65.256c.439-3.16.966-6.364,1.536-9.569a.161.161,0,0,1,.044-.132c.746-4.3,1.624-8.559,2.59-12.817a.391.391,0,0,1,.219-.351.473.473,0,0,1,.351-.088c.132,0,.219.088.351.219a1.215,1.215,0,0,1,.044.4c-.966,4.038-1.8,8.12-2.546,12.2a27.2,27.2,0,0,0,12.948-6.145.5.5,0,0,1,.351-.132.882.882,0,0,1,.351.176.318.318,0,0,1,.088.351.331.331,0,0,1-.176.307A27.533,27.533,0,0,1,43,56.082c-.571,3.248-1.1,6.5-1.536,9.7-.4,2.721-.746,5.443-1.1,8.208-.439,3.819-.79,7.506-1.053,11.193A68.14,68.14,0,0,0,66.7,75.439a.331.331,0,0,1,.351-.044c.132.044.263.088.307.219a.331.331,0,0,1,.044.351c0,.132-.088.219-.219.307A68.02,68.02,0,0,1,39.27,86.149q-.527,8.032-.527,15.538v.044a157.388,157.388,0,0,0,.834,16.723v.088q1.975,20.476,8.954,36.3a.481.481,0,0,1,0,.351.4.4,0,0,1-.263.263.481.481,0,0,1-.351,0,.45.45,0,0,1-.263-.219c-4.74-10.666-7.769-22.868-9.13-36.694C38.568,118.541,38.568,118.5,38.568,118.453Z" transform="translate(-7.826 -23.733)"/><path class="h" d="M31.813,94.852v-.088c-.527-5.355-.834-10.929-.834-16.723V78q0-7.506.527-15.538a68.02,68.02,0,0,0,27.916-9.876.33.33,0,0,0,.219-.307.466.466,0,0,0-.044-.351.33.33,0,0,0-.307-.219.344.344,0,0,0-.351.044A68.139,68.139,0,0,1,31.55,61.493q.4-5.465,1.053-11.193c.351-2.765.7-5.487,1.1-8.208.483-3.2.966-6.452,1.536-9.7a27.709,27.709,0,0,0,13.782-6.408.707.707,0,0,0,.176-.307.318.318,0,0,0-.088-.351.456.456,0,0,0-.351-.176.5.5,0,0,0-.351.132,27.2,27.2,0,0,1-12.948,6.145c.746-4.082,1.58-8.164,2.546-12.2a1.215,1.215,0,0,0-.044-.4.448.448,0,0,0-.351-.219.341.341,0,0,0-.351.088.348.348,0,0,0-.219.351c-1.01,4.258-1.843,8.559-2.59,12.817A.161.161,0,0,0,34.4,32c-.614,3.2-1.1,6.408-1.536,9.569-2.59,0-5.179-1.361-7.769-4.038a.534.534,0,0,0-.7,0,.432.432,0,0,0-.132.351.5.5,0,0,0,.132.351c2.721,2.853,5.443,4.3,8.252,4.345-.351,2.546-.7,5.092-.966,7.637-.439,4.038-.834,7.988-1.1,11.807v.132c-.351,5.267-.571,10.4-.571,15.362C20.752,75.758,13.071,70.623,6.97,62.02a.444.444,0,0,0-.307-.176.331.331,0,0,0-.351.044.444.444,0,0,0-.176.307.394.394,0,0,0,.088.4C12.5,71.457,20.4,76.724,30.013,78.436q.066,8.493.79,16.328c-1.141-.176-2.326-.351-3.511-.615a39.217,39.217,0,0,1-20.5-11.236Q.21,75.868.079,68.428q-.527-16.262,15.67-30.549A40.427,40.427,0,0,0,22.683,29.8a21.813,21.813,0,0,0,3.029-8.076c.7-3.775,1.448-7.111,2.195-10.051a16.137,16.137,0,0,1,4.082-7.462A13.332,13.332,0,0,1,41.645,0a11,11,0,0,1,8.866,4.214A12.964,12.964,0,0,1,53.276,10.8q1.514,6.518,0,18.567c-.132,7.111,2.9,11.1,9.174,12.027,5.706,1.141,8.822,3.994,9.305,8.559a21.049,21.049,0,0,1,.132,4.038C71.58,58.9,68.9,62.327,63.9,64.259c-2.019,1.229-2.9,3.38-2.677,6.408a28.1,28.1,0,0,1-.527,9.964c-1.317,5.223-4.96,9.13-10.929,11.807A32.587,32.587,0,0,1,31.813,94.852Zm-7.769,13.782a24.182,24.182,0,0,1,2.019,3.731,68.65,68.65,0,0,1,4.609,17.908q-22.649-.132-25.765-1.317a12.665,12.665,0,0,1-4.828-3.029c5.53-1.931,10.227-2.37,14.133-1.317,3.863.966,6.057,1.536,6.628,1.712q-13.1-7.637-17.206-13.08a19.052,19.052,0,0,1-2.853-5.53c5.223-1.361,11.719,1.975,19.488,9.92,1.843,1.887,3.6,3.819,5.267,5.838-.307-.658-.614-1.317-.922-2.019-2.326-5.706-2.809-10.359-1.361-13.958Zm50.3,1.668a23.761,23.761,0,0,1-3.292,5.267q-4.345,4.675-16.635,10.578c.834-.176,2.019-.351,3.468-.527,4.214-.614,9.393.351,15.494,2.853a12.977,12.977,0,0,1-5.092,2.634q-3.226.856-25.765-1.141c1.536-1.624,3.424-3.687,5.706-6.189,1.843-1.843,3.819-3.6,5.794-5.311C62.582,111.136,69.341,108.458,74.345,110.3Z" transform="translate(-0.062 0)"/></g></g></svg>