<svg xmlns="http://www.w3.org/2000/svg" viewBox="0 0 211.901 134.811"><g fill-rule="evenodd"><path d="M131.653 86.216a3.351 3.351 0 0 1 .613-.077 79.144 79.144 0 0 1 12.671-.345 55.879 55.879 0 0 1 16.463 3.255q13.322 4.824 14.624 13.743a13.062 13.062 0 0 1-2.756 10.03H.23a9.5 9.5 0 0 1-.23-2.067c0-4.517 3.637-8.5 10.949-11.868 7.618-3.56 16.27-5.283 25.994-5.245h.345c.268-.038.536-.038.8-.077a12.3 12.3 0 0 0 1.378-.306c2.756-.8 4.67-2.795 5.781-5.934A28.873 28.873 0 0 1 55.7 73.813a5.208 5.208 0 0 1 .651-.459c6.968-4.939 15.275-7.389 24.999-7.389q14.988 0 25.611 7.81c.536.383 1.072.8 1.57 1.225.689.574 1.34 1.187 1.952 1.8a29.835 29.835 0 0 0 2.718 3.024 22.127 22.127 0 0 0 18.222 6.431h.23z" fill="#cbe6ef"/><path d="M110.808 86.846H84.041v-6.284c-.057-3.088-1.723-5.2-5.055-6.393-14.359-5.743-22.114-16.362-23.09-31.857-.058-1.083-.115-2.221-.115-3.359 0-10.781 4.021-19.937 12.12-27.576A40.956 40.956 0 0 1 97.081 0h.747a41.052 41.052 0 0 1 29.178 11.377 36.537 36.537 0 0 1 12.062 27.576c0 1.138-.057 2.275-.115 3.359q-1.464 23.243-23.09 31.857c-3.274 1.192-4.94 3.3-5.055 6.393zm12.866-39.17a5.369 5.369 0 0 1-3.848 1.517h-7.812a56.959 56.959 0 0 1 2.7-7.314 7.055 7.055 0 0 1 1.149-1.625v.054a5.45 5.45 0 0 1 3.963-1.517 5.276 5.276 0 0 1 3.848 1.517 4.923 4.923 0 0 1 1.607 3.738 4.778 4.778 0 0 1-1.608 3.63zm1.436-8.723a7.885 7.885 0 0 0-10.626 0 7.636 7.636 0 0 0-1.551 2.167 65.836 65.836 0 0 0-2.987 8.072h-.919a.56.56 0 0 0-.057-.271 5.525 5.525 0 0 1-.345-1.463V47.3a5.244 5.244 0 0 0-.517-2.384c-.517-1.029-1.149-1.463-1.9-1.409-.747-.108-1.379.379-1.9 1.354a5.166 5.166 0 0 0-.507 2.439v.108a3.445 3.445 0 0 1-.287 1.409c0 .054-.057.108-.057.163 0-.054-.057-.108-.057-.163v-.057a2.719 2.719 0 0 1-.345-1.409v-.217a5.662 5.662 0 0 0-.46-2.33c-.46-.975-1.091-1.463-1.9-1.354-.747-.108-1.379.379-1.9 1.354a5.014 5.014 0 0 0-.517 2.33v.108a3.074 3.074 0 0 1-.345 1.463.56.56 0 0 0-.057.271h-.4a.56.56 0 0 0-.057-.271.054.054 0 0 0-.057-.054 2.835 2.835 0 0 1-.287-1.409v-.162a5.014 5.014 0 0 0-.517-2.33v-.05c-.517-.975-1.149-1.409-1.9-1.354-.747-.108-1.379.379-1.9 1.354a4.861 4.861 0 0 0-.517 2.33v.108a5.455 5.455 0 0 1-.345 1.517.192.192 0 0 0-.057.163c0-.054-.057-.108-.057-.163a2.835 2.835 0 0 1-.287-1.409v-.166a6.768 6.768 0 0 0-.517-2.384c-.517-1.029-1.149-1.463-1.9-1.409-.8-.054-1.436.379-1.953 1.354v.059a5.6 5.6 0 0 0-.4 2.275v.108a5.455 5.455 0 0 1-.345 1.517.56.56 0 0 0-.057.271h-.919c-.976-2.817-1.953-5.526-2.987-7.747a6.882 6.882 0 0 0-1.608-2.167 7.566 7.566 0 0 0-5.284-2.059 7.467 7.467 0 0 0-5.284 2.059 6.691 6.691 0 0 0-2.24 5.038 6.5 6.5 0 0 0 2.24 4.984 7.242 7.242 0 0 0 5.284 2.059h8.329a164.594 164.594 0 0 1 4.136 22.05l1.608 12.352a.971.971 0 0 0 1.091.867 1.08 1.08 0 0 0 .689-.379 1.047 1.047 0 0 0 .23-.7l-1.593-12.414a176.987 176.987 0 0 0-4.021-21.779h.4c.747.108 1.379-.379 1.9-1.409a6.078 6.078 0 0 0 .517-2.167v-.217a4.846 4.846 0 0 1 .287-1.625c.057-.108.057-.163.115-.217a.56.56 0 0 0 .057.271 6.264 6.264 0 0 1 .345 1.679v.054a4.425 4.425 0 0 0 .517 2.221c.517 1.029 1.149 1.463 1.9 1.354.747.108 1.379-.379 1.9-1.409a6.078 6.078 0 0 0 .517-2.167v-.217a3.8 3.8 0 0 1 .287-1.517.391.391 0 0 0 .045-.214c0 .054.057.108.057.217v.054a4.224 4.224 0 0 1 .287 1.517v.163a4.425 4.425 0 0 0 .517 2.221v-.054c.46 1.029 1.091 1.517 1.9 1.409h.4c.747.108 1.379-.379 1.9-1.409a6.387 6.387 0 0 0 .517-2.221v-.163a3.143 3.143 0 0 1 .345-1.517.311.311 0 0 0 .057-.217c0 .054.057.108.057.217a4.3 4.3 0 0 1 .287 1.571v.108a4.223 4.223 0 0 0 .574 2.275v-.054c.517 1.029 1.149 1.463 1.9 1.409.747.108 1.379-.379 1.9-1.409a4.721 4.721 0 0 0 .517-2.221v-.108a3.444 3.444 0 0 1 .345-1.625c0-.054.057-.108.057-.163 0 .054.057.108.057.163a3.238 3.238 0 0 1 .287 1.571v.217a6.078 6.078 0 0 0 .517 2.167c.517 1.029 1.149 1.463 1.9 1.409h.4a168.5 168.5 0 0 0-4.035 21.778l-1.551 12.407a.822.822 0 0 0 .23.7 1.08 1.08 0 0 0 .689.379.941.941 0 0 0 .747-.217 1 1 0 0 0 .4-.65l1.551-12.352a176.2 176.2 0 0 1 4.136-22.05h8.329a7.566 7.566 0 0 0 5.284-2.059 6.442 6.442 0 0 0 2.183-4.984 8.116 8.116 0 0 0-2.411-4.981zm-44.515 2.926a54.538 54.538 0 0 1 2.7 7.314H75.54a5.5 5.5 0 0 1-3.906-1.517 4.809 4.809 0 0 1-1.608-3.684 4.978 4.978 0 0 1 1.666-3.738 5.409 5.409 0 0 1 3.906-1.517 5.5 5.5 0 0 1 3.906 1.517 13.407 13.407 0 0 1 1.091 1.625z" fill="#fee454"/><path d="M110.115 86.366h1.34c1.4 1.507 2.01 2.9 1.842 4.242a6.059 6.059 0 0 1-1.507 3.349 3.192 3.192 0 0 1-.447.391l-.391 3.238c.167.112.279.223.279.335a5.255 5.255 0 0 1 .893 3.349 5.334 5.334 0 0 1-1.73 3.238.055.055 0 0 1-.056.056l-.279 3.07a5.1 5.1 0 0 1 1.061 3.238 4.967 4.967 0 0 1-1.619 2.9l-2.121 2.735a3.536 3.536 0 0 1 .837 2.568 3.92 3.92 0 0 1-1.34 2.344 60.722 60.722 0 0 1-19.593 0 3.332 3.332 0 0 1-.5-4.912l-2.233-2.9a4.57 4.57 0 0 1-1.451-2.735 4.787 4.787 0 0 1 1.061-3.238l-.279-3.07-.056-.056a5.99 5.99 0 0 1-1.73-3.238 5.627 5.627 0 0 1 .893-3.349 1.48 1.48 0 0 1 .279-.335l-.447-3.238a1.046 1.046 0 0 1-.335-.391 7.022 7.022 0 0 1-1.563-3.349 5.8 5.8 0 0 1 1.842-4.242h27.35z" fill="#868a99"/><path d="M167.384 108.204a3.351 3.351 0 0 1 .613-.077 79.144 79.144 0 0 1 12.671-.345 55.879 55.879 0 0 1 16.463 3.255q13.322 4.824 14.624 13.743a13.062 13.062 0 0 1-2.756 10.03H35.961a9.5 9.5 0 0 1-.23-2.067c0-4.517 3.637-8.5 10.949-11.868 7.618-3.56 16.27-5.283 25.994-5.245h.345c.268-.038.536-.038.8-.077a12.3 12.3 0 0 0 1.378-.306c2.756-.8 4.67-2.795 5.781-5.934a28.873 28.873 0 0 1 10.453-13.512 5.208 5.208 0 0 1 .651-.459c6.968-4.939 15.275-7.389 24.999-7.389q14.988 0 25.611 7.81c.536.383 1.072.8 1.57 1.225.689.574 1.34 1.187 1.952 1.8a29.835 29.835 0 0 0 2.718 3.024 22.127 22.127 0 0 0 18.222 6.431h.23z" fill="#a5d9e8"/></g></svg>