<svg xmlns="http://www.w3.org/2000/svg" xmlns:xlink="http://www.w3.org/1999/xlink" viewBox="0 0 430.281 422"><defs><style>.a,.u{fill:none;}.b{fill:#39bed3;opacity:0.1;}.c{clip-path:url(#a);}.d{fill:#333;}.aa,.ac,.d,.e,.f,.g,.h,.i,.j,.k,.l,.m,.n,.o,.q,.r,.s,.t,.w,.y{fill-rule:evenodd;}.e{fill:#fac67e;}.ab,.f{fill:#fff;}.g{fill:#403f2d;}.h{fill:#ccc;}.i{fill:#515739;}.j{fill:#413921;}.k{fill:#282115;}.l{fill:#171713;}.m{fill:#57523f;}.n{fill:#1e1711;}.o{fill:#0a0600;}.p{clip-path:url(#b);}.q{fill:#e1e1e1;}.r{fill:#999;}.s{fill:#d1f8fc;}.t{fill:#0f9;}.u{stroke:#fff;stroke-linecap:round;stroke-linejoin:round;stroke-width:3px;stroke-dasharray:1 10;}.v{opacity:0.5;}.w{fill:#a5d9e8;}.x{clip-path:url(#c);}.y{fill:#23334d;}.z{fill:#fc0;}.aa{fill:#2e2f3d;}.ac{fill:#36f;}</style><clipPath id="a"><rect class="a" width="230.362" height="351.733" transform="translate(683.388 5.719)"/></clipPath><clipPath id="b"><rect class="a" width="66.3" height="101.315"/></clipPath><clipPath id="c"><rect class="a" width="46.796" height="75.543" transform="translate(0 0)"/></clipPath></defs><g transform="translate(-125.085 -1483)"><path class="b" d="M56.109,0H317.294C348.283,0,373.4,30.957,373.4,69.145V264.894c0,38.188-25.121,69.145-56.109,69.145H56.109C25.121,334.039,0,303.082,0,264.894V69.145C0,30.957,25.121,0,56.109,0Z" transform="translate(188.822 1483) rotate(11)"/><g class="c" transform="translate(-521.914 1547.547)"><g transform="translate(820.04 35.463)"><path class="d" d="M692.393,90.759a15.325,15.325,0,0,1,2.758.607l.225,1.435c.056.276.056.607.113.883l1.857-8.5h1.238a14.72,14.72,0,0,0,10.75-4.359,14.65,14.65,0,0,0,0-21.025,15.434,15.434,0,0,0-21.5,0,14.236,14.236,0,0,0-4.446,10.54,14.029,14.029,0,0,0,4.446,10.485,15.143,15.143,0,0,0,6.078,3.7ZM689.8,61.733a12.106,12.106,0,0,1,8.78-3.587,11.891,11.891,0,0,1,8.78,3.587,12.088,12.088,0,0,1,0,17.217,12.2,12.2,0,0,1-8.78,3.587h-.619a14.445,14.445,0,0,1-3.433-.607,12.64,12.64,0,0,1-4.728-2.98,11.957,11.957,0,0,1,0-17.217Z" transform="translate(-620.071 -55.442)"/><path class="e" d="M710,117.3a4.741,4.741,0,0,0-.113-.883l-.225-1.435a15.325,15.325,0,0,0-2.758-.607,23.08,23.08,0,0,0-10.75,1.38,24.676,24.676,0,0,1,1.069,8.719v.331l-2.476,1.655c-.675,4.966-.169,9.105,1.576,12.251l.844-.828-.056,3.7,2.2.441v1.159a9.988,9.988,0,0,0,8.949,3.035c.563-.055,1.126-.166,1.688-.276a42.337,42.337,0,0,0,4-4.47,40.245,40.245,0,0,0,6.585-13.52,47.212,47.212,0,0,0,1.013-5.187,7.223,7.223,0,0,0-1.294-.773c-2.42-1.214-5.853-1.821-10.187-1.821h0A24.408,24.408,0,0,0,710,117.3Z" transform="translate(-634.581 -79.055)"/><path class="f" d="M744.791,147.028c-1.745-3.2-2.251-7.284-1.576-12.251l-7.429,5.022a23.475,23.475,0,0,0,4.165,10.705c.225.276.394.552.619.883l2.983-3.09Z" transform="translate(-683.05 -87.32)"/><path class="g" d="M792.876,137.264l-2.983,3.09c-.225-.276-.394-.607-.619-.883a23.721,23.721,0,0,1-4.165-10.705l-26.227,18.928a210.426,210.426,0,0,0-8.555-40.228c-1.8-.166-4.446,1.931-7.879,6.236s-6.81,13.8-10.075,28.474l13.114,35.758c8.836.221,20.487-7.394,34.895-22.956a5.042,5.042,0,0,1,.563.5,26.839,26.839,0,0,0,2.814,2.152L796.2,145.983a28.614,28.614,0,0,0-2.476-7.063c0-.055-.056-.11-.113-.166C793.382,138.257,793.157,137.76,792.876,137.264Z" transform="translate(-732.373 -76.342)"/><path class="h" d="M691.659,63.549a11.957,11.957,0,0,0,0,17.217,12.64,12.64,0,0,0,4.728,2.98,13.5,13.5,0,0,0,3.433.607h.619a12.107,12.107,0,0,0,8.78-3.587,12.088,12.088,0,0,0,0-17.217,12.539,12.539,0,0,0-17.56,0Z" transform="translate(-621.926 -57.259)"/></g><g transform="translate(722.325 38.667)"><path class="g" d="M805.306,254.456c7.092-2.262,13.958-6.787,20.712-13.575,1.52-1.49,2.983-3.145,4.5-4.856.45-.552.9-1.048,1.407-1.6q9.54-11.671,18.573-29.578c-.225-8.5-.113-17.217.394-26.1.394-6.953,1.013-13.961,1.8-21.135.169-1.269.281-2.538.45-3.863a476.33,476.33,0,0,1-11.482-66.716c2.307-.276,8.386-.883,18.348-1.987l-13.9-2.207,18.854-13.52a298.449,298.449,0,0,0-31.349-5.3h0c-2.139,6.622-4.109,13.078-5.91,19.424q-4.306,15.479-7.035,30.019a190.977,190.977,0,0,0-4,40.118v.5c-.225,1.159-.507,2.318-.788,3.476q-10.722,50.658-11.087,78.47C804.743,242.371,804.912,248.5,805.306,254.456Zm79.765-26.488a71.214,71.214,0,0,0,15.183,16.665q-9.624-78.387,2.927-108.71c.9-1.435,1.745-2.869,2.589-4.359a148.176,148.176,0,0,0,13.958-30.9,71.718,71.718,0,0,0,2.42-10.65c-4.5-2.373-9.118-4.635-13.845-6.677l4.221,11.754-14.408-2.373,14.352,11.147-34.951,52.644c-.056.386-.113.717-.169,1.1-1.126,7.615-2.8,15.01-3.026,22.183a166.672,166.672,0,0,0,1.688,30.847A135.005,135.005,0,0,0,885.071,227.969Z" transform="translate(-804.789 -62.094)"/><path class="f" d="M844.549,108.114c.45,2.428,1.351,6.291,2.7,11.533.282,1.048.563,2.207.844,3.421.338,1.324.675,2.594,1.069,3.863l5.741-13.078-.563-6.125a49.162,49.162,0,0,1,3.827-3.09c1.294-.993,2.589-1.987,3.883-2.869.732,2.152,1.351,4.194,1.857,6.18l-4.165,6.9L858.45,129.69l2.195-2.152c1.632-1.655,3.1-3.2,4.5-4.691,1.689-1.766,3.208-3.421,4.559-5.022.732-2.262,1.463-4.415,2.139-6.512,2.814-8.719,4.84-15.617,6.191-20.693a131.891,131.891,0,0,1-15.984,11.092c-1.351-2.538-2.645-5.077-3.883-7.56-1.914-3.808-3.658-7.615-5.347-11.312-2.308,6.346-4.5,12.968-6.585,19.811C845.618,104.417,845.055,106.293,844.549,108.114Zm.281,67.985a2.211,2.211,0,0,0,.619,1.49,2.1,2.1,0,0,0,1.52.607,2.063,2.063,0,0,0,1.463-.607,2.018,2.018,0,0,0,.619-1.49,1.985,1.985,0,0,0-.619-1.435,2.064,2.064,0,0,0-1.463-.607,2.3,2.3,0,0,0-1.52.607A1.789,1.789,0,0,0,844.83,176.1Zm3.658-23.011a1.972,1.972,0,0,0,0,2.87,2.1,2.1,0,0,0,1.52.607,2.064,2.064,0,0,0,1.463-.607,1.972,1.972,0,0,0,0-2.87,2.064,2.064,0,0,0-1.463-.607A2.3,2.3,0,0,0,848.489,153.088Z" transform="translate(-784.936 -69.655)"/><path class="e" d="M843.165,80.32c1.688,3.752,3.49,7.5,5.347,11.312,1.238,2.483,2.533,5.022,3.883,7.56A143.459,143.459,0,0,0,868.379,88.1c.169-.552.281-1.1.45-1.655l.45-1.987a44.586,44.586,0,0,0-20.712-7.56c-1.294-.166-2.645-.276-4-.331C844.066,77.782,843.615,79.051,843.165,80.32Z" transform="translate(-775.335 -67.135)"/><path class="i" d="M864.295,121.717c-2.533,8.222-4.334,14.679-5.4,19.424-.788,3.752-1.463,7.394-2.026,11.036-.169.993-.338,2.042-.507,3.035l34.951-52.644L876.958,91.421l14.408,2.373L887.145,82.04l-1.632-4.635c-3.208-6.291-6.923-10.705-11.2-13.3a18.977,18.977,0,0,0-4.615-2.042c-3.771-1.545-8.048-1.655-12.888-.441A42.978,42.978,0,0,0,846.4,66.037l-2.589,1.987-18.8,13.52,13.9,2.207c-9.962,1.048-16.1,1.711-18.348,1.987a484.7,484.7,0,0,0,11.481,66.716c.957-7.5,2.139-15.12,3.49-22.9,1.294-5.96,2.7-11.754,4.165-17.382.225-.828.394-1.6.619-2.373.957-3.587,1.914-7.063,2.927-10.54.563-1.876,1.069-3.7,1.632-5.518,2.082-6.843,4.277-13.465,6.585-19.811.45-1.269.9-2.538,1.351-3.752,1.351.055,2.7.166,4,.331a44.586,44.586,0,0,1,20.712,7.56l-.45,1.987c-.113.552-.281,1.1-.45,1.655-1.351,5.077-3.377,12.03-6.191,20.693-.675,2.042-1.351,4.194-2.139,6.512-.169.5-.338,1.048-.507,1.6-.45,1.324-.9,2.649-1.294,3.918C865.758,116.971,864.97,119.4,864.295,121.717Z" transform="translate(-783.632 -60.799)"/><path class="j" d="M866.547,144c-.394-1.269-.732-2.594-1.069-3.863-.281-1.214-.563-2.373-.844-3.421-1.295-5.242-2.2-9.105-2.7-11.533-1.013,3.477-1.97,6.953-2.927,10.54-.225.773-.394,1.545-.619,2.373a104.089,104.089,0,0,0,6.472,10.761c1.576,2.262,3.152,4.47,4.84,6.622a3.067,3.067,0,0,0,.338.441l2.251,2.7c-.563-1.159-1.126-2.262-1.688-3.421a38.6,38.6,0,0,0,4.9-2.152,35.066,35.066,0,0,0,7.429-5.353c.732-2.318,1.463-4.746,2.308-7.284.394-1.269.844-2.594,1.294-3.918.169-.552.338-1.048.507-1.6-1.351,1.545-2.87,3.2-4.559,5.022-1.407,1.49-2.927,3.035-4.5,4.691q-1.1,1.159-2.195,2.152l-.281.276c-2.082,2.1-4.052,4.028-5.91,5.739Q867.982,148.47,866.547,144Z" transform="translate(-802.375 -86.669)"/><path class="k" d="M881.633,211.958a123.091,123.091,0,0,0,18.01,1.214c1.463-6.843,2.758-14.292,3.827-22.349.056-.552.169-1.048.225-1.6.9-6.677,1.632-13.74,2.307-21.19l-.45-.828-2.251-2.7c-.113-.166-.281-.276-.338-.441-1.689-2.152-3.321-4.359-4.84-6.622a98.565,98.565,0,0,1-6.472-10.761c-1.463,5.629-2.87,11.423-4.165,17.382-1.407,7.781-2.589,15.4-3.489,22.9-.169,1.269-.338,2.538-.45,3.863C882.59,198,881.971,205.005,881.633,211.958Zm13.789-10.209a1.985,1.985,0,0,1,.619-1.435,2.1,2.1,0,0,1,1.52-.607,2.064,2.064,0,0,1,1.463.607,1.985,1.985,0,0,1,.619,1.435,2.212,2.212,0,0,1-.619,1.49,2.064,2.064,0,0,1-1.463.607,2.3,2.3,0,0,1-1.52-.607A1.978,1.978,0,0,1,895.422,201.75Zm3.658-23.011a2.1,2.1,0,0,1,1.52-.607,2.064,2.064,0,0,1,1.463.607,1.972,1.972,0,0,1,0,2.87,2.064,2.064,0,0,1-1.463.607,2.3,2.3,0,0,1-1.52-.607,1.985,1.985,0,0,1-.619-1.435A2.237,2.237,0,0,1,899.081,178.739Z" transform="translate(-835.528 -95.306)"/><path class="l" d="M864.257,358.286c-1.407-7.781-2.308-14.458-2.814-20.142a.2.2,0,0,0-.056-.166c-6.754,6.787-13.62,11.312-20.712,13.575C845.121,354.369,853,356.631,864.257,358.286Zm39.384,1.324c-3.6-17.769-8.429-36.813-12.538-55.079-2.308,18.486-5.446,37.7-7.416,55.741.844.055,2.745.11,3.589.11l2.758.11,3.321-21.8,5.122,21.411A49.612,49.612,0,0,0,903.641,359.611Zm31.981-17.934a68.475,68.475,0,0,1-14.183-16.665c-.056,1.655-1.113,3.311-1.113,4.966a228,228,0,0,1-1.816,22.963c-.075.552-.2,1.387-.323,2.2,3.546-1.49,7.641-3.2,10.287-5.187a24.647,24.647,0,0,0,5.8-5.794Z" transform="translate(-840.157 -159.136)"/><path class="m" d="M912.461,427.85l3.433-.331,3.433-18.265-8.78-1.766c1.576-23.894.844-42.987-2.139-57.169a61.4,61.4,0,0,0-2.364-8.774q.675-2.9,1.182-6.291a215.17,215.17,0,0,0,2.139-25.163c.056-1.655.113-3.311.113-4.966a138.529,138.529,0,0,1-9.061-17.327,161.93,161.93,0,0,1-1.688-30.847c-1.8.11-3.6.166-5.459.166h-.957A123.09,123.09,0,0,1,874.3,255.9c-.507,8.884-.619,17.6-.394,26.1a166.289,166.289,0,0,1-18.573,29.578,19.244,19.244,0,0,1-1.407,1.6c-1.463,1.711-2.983,3.366-4.5,4.856,0,.055.056.11.056.166.506,5.684,1.463,12.361,2.814,20.142.281,1.435.563,2.87.844,4.359q-5.065,12.251,2.026,68.482l-7.2,3.311,4.052,18.431,4.052.552,7.317,1.048c.675-8,1.407-16,2.139-24.06q3.124-33.606,6.923-68.206c.056-.607.113-1.269.225-1.876q3.039-27.067,6.416-54.741,6.163,27.4,11.538,54.079c.169.717.281,1.435.45,2.152q6.754,33.606,12.382,66.109,1.773,10.264,3.377,20.362Z" transform="translate(-828.309 -139.194)"/><path class="d" d="M867.8,139.7c.9,3.035,1.97,5.96,3.1,8.719,1.857-1.711,3.827-3.642,5.91-5.739l.281-.276,1.294-14.844,4.165-6.9c-.506-1.987-1.126-4.084-1.857-6.18-1.294.938-2.589,1.876-3.883,2.869s-2.533,2.042-3.827,3.09l.563,6.125Z" transform="translate(-803.624 -82.369)"/><path class="n" d="M864.936,219.585h.957c1.857,0,3.658-.055,5.459-.166a222.263,222.263,0,0,1,2.026-22.183c.056-.386.113-.717.169-1.1.169-.993.338-2.042.507-3.035.619-3.642,1.294-7.284,2.026-11.036,1.013-4.746,2.814-11.2,5.4-19.424a37.124,37.124,0,0,1-7.429,5.353,38.6,38.6,0,0,1-4.9,2.152c.563,1.159,1.126,2.318,1.688,3.421l.45.828c-.619,7.45-1.407,14.513-2.308,21.19-.056.552-.169,1.048-.225,1.6C867.638,205.293,866.343,212.742,864.936,219.585Z" transform="translate(-800.82 -101.719)"/><path class="o" d="M843.205,548.981l.506,1.656c-12.663,10.485-18.911,18.1-18.854,22.846q12.41-5.711,25.664-19.369V550.03Zm56.226-5.629-5.459.5.844,6.787c9.624,7.726,18.123,13.023,25.552,16q.76-6.7-20.6-21.411Z" transform="translate(-815.279 -254.696)"/></g><g transform="translate(683.388 40.595)"><path class="g" d="M980.091,158.328c.957-1.159,2.082-2.483,3.377-3.918l4.334-4.525-19.023-32.778c2.87-.386,6.135-.773,9.849-1.324,3.1-.441,6.472-.883,10.187-1.324,2.42-.331,4.953-.662,7.6-1.048,4.165-.552,8.611-1.159,13.4-1.766q8.78-22.68.056-46.464c-.169-.386-.281-.773-.45-1.159-.788.386-1.632.828-2.42,1.159q-53.524,26.653-65.962,54.189c4.671,8.222,12.326,16.886,22.851,26.046a20.038,20.038,0,0,0-3.377,6.07l16.434,10.043Z" transform="translate(-941.031 -64.022)"/><path class="f" d="M980.248,216.043c.281.221.788.607,1.407,1.1q1.013.911,2.7,2.318a21.313,21.313,0,0,0,6.079-7.836l-2.364-3.973-4.334,4.525A48.309,48.309,0,0,0,980.248,216.043Z" transform="translate(-941.189 -121.736)"/><path class="e" d="M947.711,219.13c-.844,1.1-1.745,2.262-2.7,3.421a44.479,44.479,0,0,0,6.529,7.946,36.579,36.579,0,0,0,5.009,3.863,4.3,4.3,0,0,0,3.1-3.421,4.844,4.844,0,0,0,3.433-3.863l4.446,1.931a5.833,5.833,0,0,0,2.645-3.532l2.87,2.262a4.472,4.472,0,0,0,2.307-3.2,22.37,22.37,0,0,0-4.165-5.739c-.338-.331-.675-.607-1.013-.883-.563-.386-1.182-.717-1.745-1.1-1.688-.993-3.377-1.987-5.065-2.869a13.216,13.216,0,0,0,2.082-4.47,22.8,22.8,0,0,0-6.472-2.649l-4.559,3.642a7.442,7.442,0,0,1-.619.773A21.52,21.52,0,0,1,947.711,219.13Z" transform="translate(-904.599 -121.402)"/></g><g transform="translate(781.544 5.72)"><g class="p" transform="translate(0 0)"><g transform="translate(0.056 0.001)"><path class="h" d="M29.066,34.711l.281,6.787.675.331a29.6,29.6,0,0,0,4.84,1.655,52.413,52.413,0,0,1,.675-17.879C40.1,23.343,42.8,20.2,43.53,16.28a12.231,12.231,0,0,0,0-4.525l-.507-1.876c10.3,5.132,17.841,7.5,22.456,7.229a5.434,5.434,0,0,0,1.745-.331v.055l1.688-.883a15.148,15.148,0,0,0,2.476-2.262c-4.277-.993-9.68-4.359-16.153-10.154C49.552-.551,43.812-1.1,38.127,1.932a8.572,8.572,0,0,0-2.645-.441c-3.546.055-6.754,2.318-9.624,6.732-2.082,3.808-4.953,5.684-8.724,5.684,2.195,8.443,4.5,13.906,6.754,16.444a11.108,11.108,0,0,1-.281-1.324,8.822,8.822,0,0,1,0-2.98,10.643,10.643,0,0,1,.732-2.262,5.225,5.225,0,0,1,3.377-2.98,3.977,3.977,0,0,1,3.94,1.048h0a5.255,5.255,0,0,1,.563.552A36.768,36.768,0,0,0,29.066,34.711Zm.563,10.043q3.63,35.593,24.933,56.562Q79.213,66.054,70.771,52.7a16.3,16.3,0,0,1-5.178,0q.338,3.394-3.715,3.145A3.151,3.151,0,0,1,59.4,53.2a22.084,22.084,0,0,1-3.827-.055,7.154,7.154,0,0,1-.844,2.1c-1.294,1.876-3.433,2.373-6.416,1.545-1.576-.5-2.7-2.1-3.489-4.856a22.824,22.824,0,0,1-13.508-5.518,4.067,4.067,0,0,0-.507-.441C30.473,45.582,30.079,45.2,29.629,44.754Z" transform="translate(-17.134 -0.002)"/><path class="e" d="M23.322,37.06a7.04,7.04,0,0,0,1.97,3.145A4.161,4.161,0,0,0,28.5,41.364a37.52,37.52,0,0,1,3.1-12.251,2.642,2.642,0,0,0-.563-.552h0a3.977,3.977,0,0,0-3.94-1.048,5.492,5.492,0,0,0-3.377,2.98,10.644,10.644,0,0,0-.732,2.262,10.563,10.563,0,0,0,0,2.98Q23.153,36.48,23.322,37.06Zm45.307-6.346a28.171,28.171,0,0,0-1.914-7.174v-.055a7.512,7.512,0,0,1-1.745.331c-4.671.331-12.157-2.042-22.513-7.119l.507,1.876a12.231,12.231,0,0,1,0,4.525c-.788,3.918-3.433,7.008-7.992,9.326A52.413,52.413,0,0,0,34.3,50.3a22.834,22.834,0,0,0,9.568.607,43.68,43.68,0,0,1,9.287-.828,7.98,7.98,0,0,1,4.39,1.6,3.481,3.481,0,0,1,.675-.276c.056,0,.113-.055.169-.055a1.588,1.588,0,0,0,.507.055h0a9.08,9.08,0,0,0,4.052-.221l.507-.166a.386.386,0,0,1,.281-.166H63.9a5.224,5.224,0,0,1,1.294.5c.169.055.338.166.507.221l.675.441c.056.055.113.055.113.11.113-.773.169-1.38.281-1.931-.225,0-.45-.055-.675-.055-.113,0-.169-.055-.281-.055-.169-.055-.338-.055-.507-.11l.507-.5c0-.11-.056-.166-.056-.276h0a.2.2,0,0,0-.056-.166,2.142,2.142,0,0,0-.225-.828h.056l-.169-.662h0a4,4,0,0,0-.225-.773,34.3,34.3,0,0,0-1.632-4.47l-1.182-2.483h0a.12.12,0,0,0-.113-.11.055.055,0,0,1,.056-.055c-.169-.386-.281-.662-.394-.883.056-.11.056-.166.113-.276a2.87,2.87,0,0,0-.9-.5,5.3,5.3,0,0,0-4.5.662,14.513,14.513,0,0,1-.113,2.152,9.486,9.486,0,0,1-2.758,5.408,6.819,6.819,0,0,1-2.082,1.38,5.1,5.1,0,0,1-2.758.276,6.69,6.69,0,0,1-1.126-.276,5.833,5.833,0,0,1-2.927-2.759,5.519,5.519,0,0,1-.394-.828,9.975,9.975,0,0,1-.507-5.187,10.252,10.252,0,0,1,.507-1.876,9.014,9.014,0,0,1,2.308-3.587A6.8,6.8,0,0,1,49.1,31.928a5.359,5.359,0,0,1,2.476-.221,3.275,3.275,0,0,1,.788.221A5.544,5.544,0,0,1,55.572,34.8a9.267,9.267,0,0,1,.844,2.483l.507-.331a5.3,5.3,0,0,1,4.5-.662,2.128,2.128,0,0,1,.844.5,2.8,2.8,0,0,1,.45.386,10.7,10.7,0,0,1,1.238-1.545,5.618,5.618,0,0,1,4.84-1.655.055.055,0,0,1,.056.055c0-.717-.056-1.435-.113-2.152C68.685,31.431,68.685,31.1,68.629,30.714ZM44.315,58.636C45.1,61.4,46.229,63,47.8,63.492c2.983.828,5.065.331,6.416-1.545a5.893,5.893,0,0,0,.844-2.1,22,22,0,0,0,3.827.055,3.151,3.151,0,0,0,2.476,2.649q4.052.248,3.715-3.145a18.781,18.781,0,0,1-4.277-1.269,25.766,25.766,0,0,1-3.771-2.1L53.6,57.477a25.486,25.486,0,0,1-8.555,1.214h-.563C44.484,58.636,44.428,58.636,44.315,58.636Z" transform="translate(-16.568 -6.71)"/><path class="q" d="M40.768,78.647a16.3,16.3,0,0,0,5.178,0,18.989,18.989,0,0,0,7.542-3.2,28.539,28.539,0,0,0,5.065-4.359q-1.52.662-4.052,1.655c-3.94,1.49-7.992,1.048-12.157-1.38l-.113-.11-.675-.441a2.019,2.019,0,0,0-.507-.221,5.224,5.224,0,0,0-1.294-.5h-.169c-.113.055-.225.055-.338.11l-.507.166a9.08,9.08,0,0,1-4.052.221h0c-.169,0-.338-.055-.507-.055-.056,0-.113.055-.169.055a3.482,3.482,0,0,1-.675.276,8.314,8.314,0,0,0-4.39-1.6,43.679,43.679,0,0,0-9.287.828,22.781,22.781,0,0,1-9.568-.607,50.588,50.588,0,0,1-4.84-1.655L4.579,67.5c-.281-.11-.507-.276-.788-.386A20.225,20.225,0,0,1-.092,64.575,37.812,37.812,0,0,0,4.861,70.7c.45.441.844.828,1.294,1.214.169.166.338.276.507.441a22.824,22.824,0,0,0,13.508,5.518H20.9a24.835,24.835,0,0,0,8.386-1.159L32.72,75.28a25.765,25.765,0,0,0,3.771,2.1A17.982,17.982,0,0,0,40.768,78.647Z" transform="translate(7.747 -25.948)"/><path class="d" d="M37.607,60.295a5.622,5.622,0,0,0,4.109-1.766c.281-.276.563-.607.844-.883A10.591,10.591,0,0,0,43.573,56.1a9.789,9.789,0,0,0,.957-2.98,9.215,9.215,0,0,0-.9-6.07.192.192,0,0,0-.056-.11,5.278,5.278,0,0,0-3.883-2.869l-.056-.055a5.618,5.618,0,0,0-4.84,1.655,6.546,6.546,0,0,0-1.238,1.545,1.509,1.509,0,0,0-.45-.386,3.373,3.373,0,0,0-.844-.5,5.3,5.3,0,0,0-4.5.662,3.956,3.956,0,0,1-.507.331,9.267,9.267,0,0,0-.844-2.483A5.544,5.544,0,0,0,23.2,41.974a4.209,4.209,0,0,0-.788-.221,5.359,5.359,0,0,0-2.476.221,7.758,7.758,0,0,0-2.364,1.435A9.014,9.014,0,0,0,15.263,47a18.328,18.328,0,0,0-.507,1.876,8.936,8.936,0,0,0,.507,5.187,5.521,5.521,0,0,0,.394.828,5.607,5.607,0,0,0,2.927,2.759,2.6,2.6,0,0,0,1.126.276,5.217,5.217,0,0,0,2.758-.276,6.819,6.819,0,0,0,2.082-1.38,9.931,9.931,0,0,0,2.87-7.56,5.3,5.3,0,0,1,4.5-.662,2.87,2.87,0,0,1,.9.5c-.056.055-.056.166-.113.276.113.221.225.5.394.883.056-.221.169-.441.225-.607a4.923,4.923,0,0,1,.675-1.324,5.117,5.117,0,0,1,1.238-1.435,5.267,5.267,0,0,1,4.39-1.49h0a4.96,4.96,0,0,1,3.6,2.759,5.918,5.918,0,0,1,.45,1.048,8.241,8.241,0,0,1,.338,4.415,5.947,5.947,0,0,1-.338,1.435,7.44,7.44,0,0,1-1.914,3.2c-.056.11-.169.166-.281.276a4.9,4.9,0,0,1-3.658,1.6c-.225,0-.45-.055-.619-.055a2.48,2.48,0,0,0-.281-.055c-.056,0-.169-.055-.225-.055,0,.11.056.166.056.276l-.507.5c.169.055.338.055.507.11.113,0,.169.055.281.055A.631.631,0,0,1,37.607,60.295ZM16.22,54.225a7.97,7.97,0,0,1-.788-5.3,7.686,7.686,0,0,1,2.476-4.746,4.786,4.786,0,0,1,4.221-1.435A4.548,4.548,0,0,1,25.619,45.4a7.378,7.378,0,0,1,.788,2.373A11.429,11.429,0,0,1,26.52,49.2a13.27,13.27,0,0,1-.113,1.49,8.077,8.077,0,0,1-2.42,4.746,4.842,4.842,0,0,1-4.277,1.435A4.733,4.733,0,0,1,16.22,54.225Z" transform="translate(12.653 -16.757)"/><path class="r" d="M22.529,27.543a28.792,28.792,0,0,1,1.914,7.174,19.122,19.122,0,0,0,.225-6.843l-.45-1.214Z" transform="translate(27.618 -10.714)"/><path class="s" d="M36.9,59.95c.056,0,.169.055.225.055.113,0,.169.055.281.055a2.573,2.573,0,0,0,.619.055,4.9,4.9,0,0,0,3.658-1.6c.113-.055.169-.166.281-.276a7.44,7.44,0,0,0,1.914-3.2,5.947,5.947,0,0,0,.338-1.435,8.241,8.241,0,0,0-.338-4.415c-.113-.331-.281-.662-.45-1.048a4.993,4.993,0,0,0-3.6-2.759h0a5.267,5.267,0,0,0-4.39,1.49A9.894,9.894,0,0,0,34.2,48.306a4.923,4.923,0,0,0-.675,1.324c-.056.221-.169.441-.225.607a.054.054,0,0,1-.056.055.12.12,0,0,1,.113.11h0l1.182,2.483a34.3,34.3,0,0,1,1.632,4.47,2.753,2.753,0,0,1,.281.938h0l.169.662h-.056c.056.166.113.441.225.828.056.055.056.11.113.166ZM16.527,54.928a4.8,4.8,0,0,0,3.546,2.7A5.229,5.229,0,0,0,24.35,56.2a8.243,8.243,0,0,0,2.42-4.746,6.651,6.651,0,0,0,.113-1.49,11.429,11.429,0,0,0-.113-1.435,7.378,7.378,0,0,0-.788-2.373,4.733,4.733,0,0,0-3.489-2.649,4.891,4.891,0,0,0-4.221,1.435A8.309,8.309,0,0,0,15.8,49.686,7.622,7.622,0,0,0,16.527,54.928Z" transform="translate(12.346 -17.46)"/><path class="t" d="M10.7,47.417v.055l.113.055c.056-.055.056-.055.056-.11Z" transform="translate(48.845 -19.054)"/></g></g></g></g><path class="u" d="M-1151.1,970l54.663-7.734-11.191-97.352,16.941-91.2" transform="translate(1554 839)"/><g class="v" transform="translate(316.1 1680.164)"><path class="w" d="M264.619,502.5a3.724,3.724,0,0,1,.682-.085,88.08,88.08,0,0,1,14.1-.383,62.19,62.19,0,0,1,18.32,3.621q14.827,5.368,16.275,15.3a14.537,14.537,0,0,1-3.068,11.163H118.356a10.576,10.576,0,0,1-.256-2.3c0-5.027,4.047-9.458,12.185-13.208,8.478-3.962,18.107-5.88,28.929-5.837h.383c.3-.043.6-.043.895-.085a13.705,13.705,0,0,0,1.534-.341c3.068-.895,5.2-3.11,6.433-6.6a32.133,32.133,0,0,1,11.631-15.04,5.791,5.791,0,0,1,.724-.511Q192.382,480,208.636,480q16.68,0,28.5,8.691c.6.426,1.193.895,1.747,1.363.767.639,1.491,1.321,2.173,2a33.205,33.205,0,0,0,3.025,3.366,24.626,24.626,0,0,0,20.28,7.158h.256Z" transform="translate(-118.1 -480)"/></g><g class="x" transform="translate(399.117 1645.921)"><g transform="translate(4.863 -0.017)"><path class="y" d="M44.733,54.18a11.318,11.318,0,0,0-15.994,0,10.991,10.991,0,0,0-3.309,7.838v23.6H17.992l-.067-23.6a18.149,18.149,0,0,1,5.5-13.153,18.17,18.17,0,0,1,13.3-5.5,18.17,18.17,0,0,1,13.3,5.5,18.149,18.149,0,0,1,5.5,13.153l.05,15.577a11.266,11.266,0,0,1-7.554,0V62.018A10.8,10.8,0,0,0,44.733,54.18Z" transform="translate(-17.926 -43.366)"/></g><g transform="translate(0 32.223)"><rect class="z" width="46.796" height="43.32"/></g></g><path class="aa" d="M36.588,21.9a4.536,4.536,0,0,0-3.257-.277l-.208,6.445h.069l1.455.1a8.648,8.648,0,0,0,.866.069,9.339,9.339,0,0,1,.97.139h.069V21.9Zm7.623,10.291c-.381-.139-.728-.277-1.109-.416L41.786,40.3c.658.243,1.351.52,2.01.832a9.416,9.416,0,0,1,.866.381c.069,0,.1.035.139.035a1.281,1.281,0,0,0,.381.173l.069.069,1.317-8.7a.262.262,0,0,1-.139-.035c-.381-.173-.762-.346-1.143-.485A7.757,7.757,0,0,0,44.211,32.188Zm.45-7.761a.107.107,0,0,0-.069-.035,1.448,1.448,0,0,1-.346-.139l-.8,5.544a8.464,8.464,0,0,1,.832.346c.346.139.728.312,1.074.485.381.173.762.381,1.143.589a1.281,1.281,0,0,0,.381.173l.693-5.717a3.376,3.376,0,0,0-.381-.173,1.431,1.431,0,0,1-.381-.243c-.381-.139-.762-.312-1.143-.45S44.973,24.531,44.662,24.427Zm3.707-6.1a3.607,3.607,0,0,0-2.668-.97L44.384,23.11a.439.439,0,0,0,.208.035,1.5,1.5,0,0,0,.173.035.152.152,0,0,0,.1.035.815.815,0,0,0,.277.069c.277.1.52.173.8.277.416.173.832.312,1.282.485a2.12,2.12,0,0,1,.416.173c.035,0,.069.035.1.035Zm-14.795.45,3.222.173V12.716a2.14,2.14,0,0,0-2.876-.173Zm-17.082-.9a2.559,2.559,0,0,0-2.01.762l.728,4.851,2.46-.9Zm9.216-3.673-.139-.069a3.044,3.044,0,0,0-.866-.243,2.127,2.127,0,0,0-1.7.624l.416,5.786c.45-.069.866-.139,1.282-.173h.277a.514.514,0,0,1,.243-.035c.035,0,.069-.035.1-.035h.208a4.418,4.418,0,0,0,.693-.035ZM23.7,22.591l.485,6.029c.8-.1,1.594-.243,2.391-.346h.208c.1,0,.208-.035.346-.035l-.554-6.133A5.184,5.184,0,0,0,23.7,22.591Zm2.841,7.553c-.762.069-1.525.173-2.287.277l.589,8.523c.658-.1,1.317-.208,2.01-.312a3.766,3.766,0,0,1,.624-.035c.173,0,.312-.035.416-.035l-.658-8.489c-.173,0-.346.035-.52.035A1.5,1.5,0,0,1,26.541,30.144Zm-8-.312a2.34,2.34,0,0,1,.485-.069l-.97-5.648-2.633,1.178.658,5.37c.624-.208,1.247-.416,1.871-.589A1.765,1.765,0,0,1,18.537,29.832ZM31.391,73.246a9.064,9.064,0,0,0-4.816.624,4.367,4.367,0,0,0,.554,3.742L31.6,77.4A10.179,10.179,0,0,0,31.391,73.246Zm6.029.693a10.768,10.768,0,0,0-4.366-.762l-.693,3.638a3.049,3.049,0,0,0,.52.173,11.787,11.787,0,0,0,2.945.693,4,4,0,0,0,.52-.693A8.5,8.5,0,0,0,37.42,73.939Zm2.46-.45a4.02,4.02,0,0,0,.554-.728,9.808,9.808,0,0,0,1.317-3.326,9.722,9.722,0,0,0-4.192-.8l-.97,3.915c.139.069.312.139.485.208A7.638,7.638,0,0,0,39.88,73.489Zm-9.7-5.093a7.064,7.064,0,0,0,0,3.811,20.706,20.706,0,0,0,5.856,0,7.878,7.878,0,0,0,0-3.811A11.19,11.19,0,0,0,30.179,68.4Zm7.934-3.569a1.568,1.568,0,0,0-.554.866,1.8,1.8,0,0,0,.277,1.559,2.147,2.147,0,0,0,1.386.97,2.48,2.48,0,0,0,1.663-.139l.312-.208A2,2,0,0,0,41.89,66.8a1.384,1.384,0,0,0,.069-.658,1.788,1.788,0,0,0-.069-.381.439.439,0,0,1-.035-.208l2.772-18.849a1.986,1.986,0,0,0,.381-2.737,2.38,2.38,0,0,0-1.49-1.074,1.9,1.9,0,0,0-1.074-.035,2.876,2.876,0,0,0-.728.208,1.209,1.209,0,0,0-.312.208,1.855,1.855,0,0,0-.728,1.109,2.112,2.112,0,0,0,.243,1.7l.069.069ZM22.348,70.163a3.968,3.968,0,0,0,1.94,3.43l5.405-1.386a8.987,8.987,0,0,0-1.663-3.95A13.846,13.846,0,0,0,22.348,70.163Zm-1.386-27.13h0l-.52-.208a.515.515,0,0,0-.208-.035.439.439,0,0,1-.208-.035,6.937,6.937,0,0,0-.832.139,1.689,1.689,0,0,0-.381.139,2.492,2.492,0,0,0-.728.416.346.346,0,0,0-.139.173.919.919,0,0,1-.173.208l-.1.1a.377.377,0,0,0-.035.173h0a1.231,1.231,0,0,1-.139.312,1.549,1.549,0,0,0-.069,1.178,1.885,1.885,0,0,0,.693,1.074,1.244,1.244,0,0,0,.346.243l2.425,17.5c-.035.035-.035.069-.069.139a2.007,2.007,0,0,0-.243,1.594,1.966,1.966,0,0,0,1,1.282,2.417,2.417,0,0,0,1.7.208,2.241,2.241,0,0,0,1.386-1.039,2.1,2.1,0,0,0-.554-2.737L21.482,46.463a3.682,3.682,0,0,0,.312-.381.121.121,0,0,0,.035-.069A1.366,1.366,0,0,0,22,45.528a1.406,1.406,0,0,0,.139-.658c-.035-.173-.035-.346-.069-.52a2.081,2.081,0,0,0-.762-1.109A1.3,1.3,0,0,0,20.962,43.033Zm7.657-1.143c-.069-.069-.139-.173-.208-.208a.919.919,0,0,0-.208-.173h-.035a1.318,1.318,0,0,0-.45-.312c-.069-.035-.139-.035-.173-.069-.173-.035-.381-.069-.589-.1h-.243a1.554,1.554,0,0,0-.381.035.978.978,0,0,0-.52.139,1.759,1.759,0,0,0-.624.312.121.121,0,0,0-.069.035c-.035,0-.035.035-.035.069-.035,0-.069,0-.069.035a.271.271,0,0,0-.139.139l-.208.208a1.967,1.967,0,0,0-.346,1.178,2.049,2.049,0,0,0,.693,1.559c.1.069.173.139.277.208L26.541,63.51a1.969,1.969,0,0,0-.381,1.143,1.787,1.787,0,0,0,.658,1.421,2.015,2.015,0,0,0,1.49.624,2.172,2.172,0,0,0,1.559-.624c.035,0,.035-.035.069-.069a1.75,1.75,0,0,0,.52-1.386,2.132,2.132,0,0,0-.069-.658,1.817,1.817,0,0,0-.381-.658L28.446,44.7a2.224,2.224,0,0,0,.346-.45A1.706,1.706,0,0,0,29,43.657a2.622,2.622,0,0,0,.035-.52A1.757,1.757,0,0,0,28.619,41.89Zm7.8.208a1.4,1.4,0,0,0-.173-.312.121.121,0,0,1-.035-.069.919.919,0,0,0-.173-.208,2.175,2.175,0,0,0-.416-.381h-.035a1.918,1.918,0,0,0-.762-.346,2.837,2.837,0,0,0-1.7.1h0c-.069,0-.1.035-.173.069a.478.478,0,0,0-.139.1c-.035.035-.1.069-.173.139a1.642,1.642,0,0,0-.346.346.919.919,0,0,0-.173.208,4.033,4.033,0,0,0-.208.52,2.05,2.05,0,0,0,.243,1.663,2.159,2.159,0,0,0,.312.416l-.8,19.507A1.934,1.934,0,0,0,31.322,65a1.787,1.787,0,0,0,.658,1.421,2.092,2.092,0,0,0,1.525.624,2.24,2.24,0,0,0,1.525-.624,1.994,1.994,0,0,0,.624-1.455,1.384,1.384,0,0,0-.069-.658A1.4,1.4,0,0,0,35.41,64l.832-19.749c.069-.1.1-.208.173-.312a.849.849,0,0,0,.139-.416A2.782,2.782,0,0,0,36.415,42.1Zm-.866-11.954c-.277-.035-.554-.069-.866-.1l-1.455-.1h-.139l-.346,8.523a9.451,9.451,0,0,1,1.421.1l.832.1c.277.035.589.069.866.1a2.028,2.028,0,0,1,.45.069l.243-8.593h-.035C36.207,30.213,35.861,30.179,35.549,30.144ZM19.23,31.5a1.5,1.5,0,0,1-.173.035,2.886,2.886,0,0,0-.52.139,4.935,4.935,0,0,1-.554.173c-.554.173-1.074.312-1.628.485l1.213,8.523c.693-.243,1.386-.45,2.079-.658a3.556,3.556,0,0,1,.485-.139,1.241,1.241,0,0,0,.381-.139ZM48.993,62.679a3.109,3.109,0,0,1,.693-1.039l2.807-2.287a9.5,9.5,0,0,0-1.525-3.5L46.879,58.59c-.832.346-1.247.52-1.317.554-.1.035-.243.1-.485.208a.9.9,0,0,0-.554.52,3.6,3.6,0,0,0-.173.416,2.993,2.993,0,0,0,.069,2.252A2.891,2.891,0,0,0,45.943,64.2c.035.035.1.069.139.1l.069.243.208-.173a1.694,1.694,0,0,0,1.559-.277A3.867,3.867,0,0,0,48.993,62.679Zm7.761-8.558A5.346,5.346,0,0,0,55.4,51.314c-1.351,1.351-2.564,2.633-3.673,3.881a9.163,9.163,0,0,1,1.628,3.292C54.363,57.1,55.506,55.61,56.754,54.12Zm3.43-4.608c-.1-.866-.554-1.282-1.351-1.213a25.349,25.349,0,0,0-3.014,2.564A6.475,6.475,0,0,1,57.239,53.5ZM65,0V83.918H0V0Z" transform="translate(418.836 1538.601) rotate(-9)"/><g transform="translate(329.733 1755.918) rotate(-3)"><path class="f" d="M66.635,65.1a1.1,1.1,0,0,0-.335.82,1.156,1.156,0,0,0,.335.82,1.3,1.3,0,0,0,.82.3H82.813a1.161,1.161,0,0,0,.82-1.938,1.121,1.121,0,0,0-.82-.3H67.456A1.121,1.121,0,0,0,66.635,65.1Z" transform="translate(-41.587 -40.646)"/><path class="f" d="M31.067,64.8H16.456a1.068,1.068,0,0,0-.783.3,1.129,1.129,0,0,0-.373.82,1.057,1.057,0,0,0,.373.82,1.068,1.068,0,0,0,.783.3H31.1a1.228,1.228,0,0,0,.82-.3,1.17,1.17,0,0,0,0-1.64A1.1,1.1,0,0,0,31.067,64.8Z" transform="translate(-9.597 -40.646)"/><path class="f" d="M31.216,100.8H16.456a.963.963,0,0,0-.783.335,1.114,1.114,0,0,0-.373.783,1.006,1.006,0,0,0,.373.82.963.963,0,0,0,.783.335H31.216a1.1,1.1,0,0,0,.82-.335,1.228,1.228,0,0,0,.3-.82,1.2,1.2,0,0,0-.3-.783A1.02,1.02,0,0,0,31.216,100.8Z" transform="translate(-9.597 -63.227)"/><path class="f" d="M67.435,102.638a1.073,1.073,0,0,0,.783.335H84.843A1.146,1.146,0,0,0,86,101.818a1.073,1.073,0,0,0-.335-.783,1.1,1.1,0,0,0-.82-.335H68.218a1.147,1.147,0,0,0-1.118,1.118A1.041,1.041,0,0,0,67.435,102.638Z" transform="translate(-42.089 -63.165)"/><path class="f" d="M120.026,66.638a1.2,1.2,0,0,0,.783.3h12.04a1.3,1.3,0,0,0,.82-.3,1.17,1.17,0,0,0,0-1.64,1.121,1.121,0,0,0-.82-.3h-12a1.2,1.2,0,0,0-.783.3,1.129,1.129,0,0,0-.373.82A.975.975,0,0,0,120.026,66.638Z" transform="translate(-75.073 -40.583)"/><path class="f" d="M93.773,84.338a.963.963,0,0,0,.783.335h21.657a1.1,1.1,0,0,0,.82-.335,1.228,1.228,0,0,0,.3-.82,1.2,1.2,0,0,0-.3-.783,1.156,1.156,0,0,0-.82-.335H94.555a.963.963,0,0,0-.783.335,1.114,1.114,0,0,0-.373.783A1.006,1.006,0,0,0,93.773,84.338Z" transform="translate(-58.586 -51.686)"/><path class="f" d="M42.112,83.518a1.073,1.073,0,0,0-.335-.783,1.1,1.1,0,0,0-.82-.335h-24.6a.963.963,0,0,0-.783.335,1.114,1.114,0,0,0-.373.783,1.006,1.006,0,0,0,.373.82.963.963,0,0,0,.783.335h24.6a1.146,1.146,0,0,0,1.156-1.156Z" transform="translate(-9.534 -51.686)"/><rect class="ab" width="57.067" height="7.455" transform="translate(5.405 5.181)"/><path class="f" d="M125.056,102.974H135.53a1.156,1.156,0,0,0,.82-.335,1.228,1.228,0,0,0,.3-.82,1.2,1.2,0,0,0-.3-.783,1.156,1.156,0,0,0-.82-.335H125.056a.963.963,0,0,0-.783.335,1.114,1.114,0,0,0-.373.783,1.006,1.006,0,0,0,.373.82A.963.963,0,0,0,125.056,102.974Z" transform="translate(-77.717 -63.165)"/><path class="f" d="M117.532,119.335a1.156,1.156,0,0,0-.82-.335H95.056a.963.963,0,0,0-.783.335,1.114,1.114,0,0,0-.373.783,1.057,1.057,0,0,0,.373.82,1.068,1.068,0,0,0,.783.3h21.656a1.032,1.032,0,0,0,1.118-1.118A1.282,1.282,0,0,0,117.532,119.335Z" transform="translate(-58.899 -74.643)"/><path class="f" d="M42.063,119.335a1.156,1.156,0,0,0-.82-.335H16.456a.963.963,0,0,0-.783.335,1.114,1.114,0,0,0-.373.783,1.057,1.057,0,0,0,.373.82,1.068,1.068,0,0,0,.783.3H41.28a1.032,1.032,0,0,0,1.118-1.118A1.137,1.137,0,0,0,42.063,119.335Z" transform="translate(-9.597 -74.643)"/><path class="f" d="M33.105,166.48c-.112-.149-.335-.224-.745-.224-.634,0-1.826.6-3.69,1.752-1.9,1.267-3.019,2.013-3.392,2.2l.037-.037c2.609-2.982,3.877-4.7,3.877-5.218q0-1.957-4.808,2.236c-3.243,2.721-4.883,4.4-4.883,5.032,0,.224.075.373.3.373a39.2,39.2,0,0,1,4.659-4.659,32.593,32.593,0,0,1,4.063-2.945l.037-.037c.037,0,.037.037.037.149a22.453,22.453,0,0,1-2.87,3.429l-2.87,3.094c0,.261.149.41.522.41.634,0,2.162-.745,4.585-2.274,1.23-.783,2.609-1.64,4.137-2.646l-.037.075a20.63,20.63,0,0,1-2.348,2.907l-1.64,1.789v.3a.673.673,0,0,0,.559.261,28.368,28.368,0,0,0,5.256-.708c1.23-.261,2.572-.559,4.026-.857q2.181-.335,8.163-2.013h-.41v-.075c-2.5.335-5.181.745-7.977,1.23-4.547.745-6.9,1.118-6.97,1.118h-.6l.037-.075a1.262,1.262,0,0,0,.112-.3,21.674,21.674,0,0,0,1.752-1.864,4.246,4.246,0,0,0,1.156-2.125C33.142,166.63,33.105,166.518,33.105,166.48Z" transform="translate(-12.231 -103.076)"/><path class="f" d="M27.75,207.3a1.121,1.121,0,0,0-.82-.3H16.456a1.068,1.068,0,0,0-.783.3,1.129,1.129,0,0,0-.373.82.985.985,0,0,0,.373.783.963.963,0,0,0,.783.335H26.93a1.156,1.156,0,0,0,.82-.335,1.2,1.2,0,0,0,.3-.783A1.3,1.3,0,0,0,27.75,207.3Z" transform="translate(-9.597 -129.842)"/><path class="f" d="M34.608,193.738a1.156,1.156,0,0,0,.335-.82,1.1,1.1,0,0,0-.335-.82,1.228,1.228,0,0,0-.82-.3H16.456a1.068,1.068,0,0,0-.783.3,1.129,1.129,0,0,0-.373.82,1.057,1.057,0,0,0,.373.82,1.068,1.068,0,0,0,.783.3H33.788A1.3,1.3,0,0,0,34.608,193.738Z" transform="translate(-9.597 -120.307)"/><rect class="ab" width="68.771" height="85.694"/><path class="y" d="M41.673,40.551a1.146,1.146,0,0,1-1.156,1.156h-24.6a.963.963,0,0,1-.783-.335,1.129,1.129,0,0,1-.373-.82.985.985,0,0,1,.373-.783.963.963,0,0,1,.783-.335h24.6a1.1,1.1,0,0,1,.82.335A1.073,1.073,0,0,1,41.673,40.551Zm2.609.82a1.129,1.129,0,0,1-.373-.82.985.985,0,0,1,.373-.783.963.963,0,0,1,.783-.335H66.722a1.1,1.1,0,0,1,.82.335,1.2,1.2,0,0,1,.3.783,1.228,1.228,0,0,1-.3.82,1.156,1.156,0,0,1-.82.335H45.065A.963.963,0,0,1,44.282,41.371Zm9.766-6.6a1.2,1.2,0,0,1-.373-.82,1.057,1.057,0,0,1,.373-.82,1.037,1.037,0,0,1,.783-.3h12.04a1.3,1.3,0,0,1,.82.3,1.1,1.1,0,0,1,.335.82,1.156,1.156,0,0,1-.335.82,1.3,1.3,0,0,1-.82.3h-12A.948.948,0,0,1,54.048,34.774ZM34.442,48.193a1.1,1.1,0,0,1-.335-.82,1.147,1.147,0,0,1,1.118-1.118H51.849a1.1,1.1,0,0,1,.82.335,1.073,1.073,0,0,1,.335.783,1.146,1.146,0,0,1-1.156,1.156H35.225A1.073,1.073,0,0,1,34.442,48.193Zm-3.727-1.9a1.1,1.1,0,0,1,.82.335,1.2,1.2,0,0,1,.3.783,1.228,1.228,0,0,1-.3.82,1.1,1.1,0,0,1-.82.335H15.954a.963.963,0,0,1-.783-.335,1.129,1.129,0,0,1-.373-.82.985.985,0,0,1,.373-.783.963.963,0,0,1,.783-.335Zm-.149-13.419a1.228,1.228,0,0,1,.82.3,1.1,1.1,0,0,1,.335.82,1.156,1.156,0,0,1-.335.82,1.228,1.228,0,0,1-.82.3H15.954a1.068,1.068,0,0,1-.783-.3,1.2,1.2,0,0,1-.373-.82,1.057,1.057,0,0,1,.373-.82.939.939,0,0,1,.783-.3Zm3.578.3a1.121,1.121,0,0,1,.82-.3H50.321a1.3,1.3,0,0,1,.82.3,1.228,1.228,0,0,1,.3.82,1.032,1.032,0,0,1-1.118,1.118H34.964a1.3,1.3,0,0,1-.82-.3,1.156,1.156,0,0,1-.335-.82A1.1,1.1,0,0,1,34.144,33.171ZM71.567,21.355H14.5V13.9H71.567ZM41.561,53.411a1.2,1.2,0,0,1,.3.783,1.032,1.032,0,0,1-1.118,1.118H15.954a1.068,1.068,0,0,1-.783-.3,1.2,1.2,0,0,1-.373-.82.985.985,0,0,1,.373-.783.963.963,0,0,1,.783-.335H40.779A1.073,1.073,0,0,1,41.561,53.411Zm26.167,0a1.2,1.2,0,0,1,.3.783,1.032,1.032,0,0,1-1.118,1.118H45.251a1.068,1.068,0,0,1-.783-.3,1.2,1.2,0,0,1-.373-.82.985.985,0,0,1,.373-.783.963.963,0,0,1,.783-.335H66.908A1.156,1.156,0,0,1,67.728,53.411ZM56.434,48.528a.963.963,0,0,1-.783-.335,1.129,1.129,0,0,1-.373-.82.985.985,0,0,1,.373-.783.963.963,0,0,1,.783-.335H66.908a1.156,1.156,0,0,1,.82.335,1.2,1.2,0,0,1,.3.783,1.228,1.228,0,0,1-.3.82,1.156,1.156,0,0,1-.82.335ZM34.106,82.15a1.228,1.228,0,0,1-.82.3H15.954a1.068,1.068,0,0,1-.783-.3,1.2,1.2,0,0,1-.373-.82,1.006,1.006,0,0,1,.373-.82,1.068,1.068,0,0,1,.783-.3H33.286a1.228,1.228,0,0,1,.82.3,1.1,1.1,0,0,1,.335.82A1.341,1.341,0,0,1,34.106,82.15Zm-6.859,4.026a1.228,1.228,0,0,1,.3.82,1.2,1.2,0,0,1-.3.783,1.156,1.156,0,0,1-.82.335H15.954a.963.963,0,0,1-.783-.335A1.114,1.114,0,0,1,14.8,87a1.006,1.006,0,0,1,.373-.82.939.939,0,0,1,.783-.3H26.428A1.3,1.3,0,0,1,27.248,86.175Z" transform="translate(-9.095 -8.719)"/><path class="ac" d="M33.042,166.521c.037.037.037.149.037.3a4.245,4.245,0,0,1-1.156,2.125,21.672,21.672,0,0,1-1.752,1.864,2.567,2.567,0,0,1-.112.3l-.037.075h.6c.075,0,2.423-.373,6.97-1.118,2.8-.485,5.442-.895,7.977-1.23v.075h.41q-5.983,1.621-8.163,2.013c-1.454.3-2.8.6-4.026.857a29.157,29.157,0,0,1-5.256.708.588.588,0,0,1-.559-.261v-.3l1.64-1.789a20.631,20.631,0,0,0,2.348-2.907l.037-.075c-1.528.969-2.907,1.864-4.137,2.646-2.423,1.528-3.951,2.274-4.585,2.274-.335,0-.522-.149-.522-.41l2.87-3.094a27.78,27.78,0,0,0,2.87-3.429c0-.075,0-.149-.037-.149l-.037.037a24.68,24.68,0,0,0-4.063,2.945,42.193,42.193,0,0,0-4.659,4.659.339.339,0,0,1-.3-.373c0-.634,1.64-2.311,4.883-5.032q4.808-4.137,4.808-2.236c0,.485-1.3,2.236-3.877,5.218l-.037.037c.373-.186,1.528-.932,3.392-2.2,1.826-1.156,3.057-1.752,3.69-1.752A1.141,1.141,0,0,1,33.042,166.521Z" transform="translate(-12.169 -103.117)"/></g><path class="w" d="M122.167,26.165a2.483,2.483,0,0,1,.594-.1,52.9,52.9,0,0,1,11.772-.445,39.461,39.461,0,0,1,15.283,4.2q12.316,6.232,13.6,17.756a21.778,21.778,0,0,1-2.572,12.959H.247A16.259,16.259,0,0,1,0,57.869c0-5.836,3.363-10.98,10.139-15.333A42.844,42.844,0,0,1,34.276,35.76h.346c.247-.049.495-.049.742-.1a9.769,9.769,0,0,0,1.286-.4C39.222,34.227,41,31.655,41.992,27.6a38.256,38.256,0,0,1,9.694-17.46,3.358,3.358,0,0,1,.594-.594A31.891,31.891,0,0,1,75.526,0,32.013,32.013,0,0,1,99.267,10.09c.495.495.989,1.039,1.484,1.583.643.742,1.237,1.533,1.83,2.325A33.211,33.211,0,0,0,105.1,17.9c4.7,6.38,10.337,9.1,16.915,8.309h.148Z" transform="translate(382 1675.73)"/></g></svg>