<svg xmlns="http://www.w3.org/2000/svg" viewBox="0 0 45 45"><defs><style>.a{opacity:0.08;}.b,.c{fill:#39bed3;}.c{stroke:#39bed3;stroke-miterlimit:10;stroke-width:0.25px;}</style></defs><g transform="translate(-536 -905)"><g class="a" transform="translate(536 905)"><circle class="b" cx="22.5" cy="22.5" r="22.5"/></g><path class="b" d="M15.533,176.61v-9H2.112v16.776H8.278a.806.806,0,0,1,0,1.612H1.306a.819.819,0,0,1-.806-.806V166.806A.819.819,0,0,1,1.306,166H16.339a.819.819,0,0,1,.806.806v9.8a.806.806,0,0,1-1.612,0Z" transform="translate(548.5 752)"/><path class="c" d="M55.8,222.96a.8.8,0,0,0-1.133.065l-4.423,4.924-2.222-2.135a.8.8,0,0,0-1.111,1.155l2.81,2.7a.772.772,0,0,0,.566.218h.022a.864.864,0,0,0,.566-.261l4.967-5.534a.8.8,0,0,0-.044-1.133Z" transform="translate(512.395 707.61)"/><path class="c" d="M27.061,187.6H19.806a.806.806,0,0,0,0,1.612h7.255a.819.819,0,0,0,.806-.806.8.8,0,0,0-.806-.806Z" transform="translate(533.03 736.195)"/><path class="c" d="M25.835,208.706a.744.744,0,0,0-.621-.806H19.621a.834.834,0,0,0,0,1.612h5.592a.744.744,0,0,0,.621-.806Z" transform="translate(534.03 720.318)"/></g></svg>