<svg xmlns="http://www.w3.org/2000/svg" viewBox="0 0 39.886 39.886"><defs><style>.a{fill:#39bed3;stroke:#39bed3;stroke-width:0.3px;}</style></defs><g transform="translate(-732.85 -1193.986)"><path class="a" d="M34.6,32.912a19.74,19.74,0,0,0-.382-26.656h0s-.007-.005-.009-.009A19.737,19.737,0,0,0,20.479.018h0l-.386-.01c-.1,0-.2-.007-.3-.007s-.2,0-.3.007l-.384.01h0A19.737,19.737,0,0,0,5.383,6.246s-.007,0-.009.009h0a19.738,19.738,0,0,0-.383,26.656c0,.006,0,.013.009.019s.03.025.043.041a19.748,19.748,0,0,0,14.065,6.6h0l.384.01c.1,0,.2.006.3.006s.2,0,.3-.007l.384-.01h0a19.747,19.747,0,0,0,14.077-6.61c.009-.012.023-.015.031-.027S34.591,32.918,34.6,32.912ZM1.382,20.475H9.574a25.223,25.223,0,0,0,1.648,8.338,25.167,25.167,0,0,0-5.536,2.819A18.343,18.343,0,0,1,1.382,20.475ZM6.059,7.523a25.105,25.105,0,0,0,5.392,2.65A25.2,25.2,0,0,0,9.574,19.11H1.382A18.347,18.347,0,0,1,6.059,7.523ZM38.2,19.11H30.012a25.2,25.2,0,0,0-1.877-8.938,25.105,25.105,0,0,0,5.392-2.65A18.347,18.347,0,0,1,38.2,19.11Zm-19.093-8.9a23.86,23.86,0,0,1-5.782-.876A23.88,23.88,0,0,1,19.11,1.8Zm0,1.365V19.11H10.939a23.837,23.837,0,0,1,1.82-8.514A25.218,25.218,0,0,0,19.11,11.578Zm1.365,0a25.2,25.2,0,0,0,6.352-.981,23.837,23.837,0,0,1,1.82,8.514H20.475Zm0-1.365V1.8a23.88,23.88,0,0,1,5.782,7.532A23.86,23.86,0,0,1,20.475,10.212Zm7.1-1.291a25.205,25.205,0,0,0-5.384-7.4A18.375,18.375,0,0,1,32.559,6.521,23.739,23.739,0,0,1,27.58,8.922Zm-15.574,0a23.718,23.718,0,0,1-4.978-2.4A18.373,18.373,0,0,1,17.391,1.527,25.2,25.2,0,0,0,12.006,8.922ZM10.939,20.475H19.11v6.851a25.173,25.173,0,0,0-6.594,1.052A23.836,23.836,0,0,1,10.939,20.475Zm8.171,8.216v9.09a23.868,23.868,0,0,1-6.063-8.134A23.8,23.8,0,0,1,19.11,28.692Zm1.365,9.09v-9.09a23.8,23.8,0,0,1,6.063.956A23.864,23.864,0,0,1,20.475,37.781Zm0-10.455V20.475h8.171a23.827,23.827,0,0,1-1.578,7.9A25.136,25.136,0,0,0,20.475,27.327Zm9.536-6.851H38.2a18.339,18.339,0,0,1-4.3,11.158,25.167,25.167,0,0,0-5.536-2.819A25.206,25.206,0,0,0,30.012,20.475Zm-23.4,12.18a23.786,23.786,0,0,1,5.13-2.581,25.185,25.185,0,0,0,5.645,7.984A18.389,18.389,0,0,1,6.614,32.656Zm15.582,5.4a25.17,25.17,0,0,0,5.645-7.984,23.8,23.8,0,0,1,5.13,2.581A18.389,18.389,0,0,1,22.2,38.059Z" transform="translate(733 1194.135)"/></g></svg>