<svg xmlns="http://www.w3.org/2000/svg" viewBox="0 0 45 45"><defs><style>.a{opacity:0.08;}.b,.c{fill:#39bed3;}.c{stroke:#39bed3;stroke-width:0.25px;}</style></defs><g transform="translate(-146 -905)"><g class="a" transform="translate(146 905)"><circle class="b" cx="22.5" cy="22.5" r="22.5"/></g><g transform="translate(158.5 918)"><path class="c" d="M100.028,87.977a1.4,1.4,0,0,0,0-1.065l-.542-1.3a1.378,1.378,0,0,0-1.284-.858,1.438,1.438,0,0,0-.529.1l-.791.329A8.347,8.347,0,0,0,95.2,83.5l.329-.791a1.39,1.39,0,0,0-.748-1.813l-1.3-.542a1.325,1.325,0,0,0-.529-.1,1.384,1.384,0,0,0-1.284.858l-.329.791a8.245,8.245,0,0,0-2.385,0l-.329-.791a1.378,1.378,0,0,0-1.284-.858,1.438,1.438,0,0,0-.529.1l-1.3.542a1.393,1.393,0,0,0-.754,1.819l.329.791a8.347,8.347,0,0,0-1.685,1.685l-.791-.329a1.324,1.324,0,0,0-.529-.1,1.384,1.384,0,0,0-1.284.858l-.542,1.3A1.388,1.388,0,0,0,81,88.732l.791.329a8.245,8.245,0,0,0,0,2.385L81,91.774a1.393,1.393,0,0,0-.754,1.813l.542,1.3a1.378,1.378,0,0,0,1.284.858,1.438,1.438,0,0,0,.529-.1l.791-.329A8.347,8.347,0,0,0,85.078,97l-.329.791a1.39,1.39,0,0,0,.748,1.813l1.3.542a1.325,1.325,0,0,0,.529.1,1.384,1.384,0,0,0,1.284-.858l.329-.791a8.245,8.245,0,0,0,2.385,0l.329.791a1.378,1.378,0,0,0,1.284.858,1.438,1.438,0,0,0,.529-.1l1.3-.542a1.393,1.393,0,0,0,.754-1.813L95.2,97a8.347,8.347,0,0,0,1.685-1.685l.791.329a1.324,1.324,0,0,0,.529.1h0a1.384,1.384,0,0,0,1.284-.858l.542-1.3a1.393,1.393,0,0,0-.754-1.819l-.791-.329a8.245,8.245,0,0,0,0-2.385l.791-.329A1.36,1.36,0,0,0,100.028,87.977Zm-1.016-.42a.267.267,0,0,1-.152.152l-1.2.493a.546.546,0,0,0-.329.615,7.267,7.267,0,0,1,0,2.854.55.55,0,0,0,.329.615l1.193.493a.267.267,0,0,1,.152.152.274.274,0,0,1,0,.219l-.542,1.3a.289.289,0,0,1-.371.152L96.9,94.111a.546.546,0,0,0-.669.2,7.213,7.213,0,0,1-2.014,2.014.546.546,0,0,0-.2.669l.493,1.2a.285.285,0,0,1-.152.371l-1.3.542a.285.285,0,0,1-.371-.152l-.493-1.2a.557.557,0,0,0-.511-.341.671.671,0,0,0-.11.012,7.266,7.266,0,0,1-2.854,0,.55.55,0,0,0-.615.329l-.493,1.193a.289.289,0,0,1-.371.152l-1.3-.542a.282.282,0,0,1-.152-.371l.493-1.193a.546.546,0,0,0-.2-.669,7.155,7.155,0,0,1-2.014-2.02.546.546,0,0,0-.669-.2l-1.2.493a.285.285,0,0,1-.371-.152l-.542-1.3a.285.285,0,0,1,.152-.371l1.2-.493a.546.546,0,0,0,.329-.615,7.266,7.266,0,0,1,0-2.854.55.55,0,0,0-.329-.615L81.44,87.7a.282.282,0,0,1-.152-.371l.542-1.3a.289.289,0,0,1,.371-.152l1.193.493a.546.546,0,0,0,.669-.2,7.213,7.213,0,0,1,2.014-2.014.546.546,0,0,0,.2-.669l-.493-1.2a.274.274,0,0,1,0-.219.267.267,0,0,1,.152-.152l1.3-.542a.285.285,0,0,1,.371.152l.493,1.2a.546.546,0,0,0,.615.329,7.266,7.266,0,0,1,2.854,0,.55.55,0,0,0,.615-.329l.493-1.193a.289.289,0,0,1,.371-.152l1.3.542a.282.282,0,0,1,.152.371l-.493,1.193a.546.546,0,0,0,.2.669,7.155,7.155,0,0,1,2.014,2.02.546.546,0,0,0,.669.2l1.2-.493a.285.285,0,0,1,.371.152l.542,1.3A.251.251,0,0,1,99.012,87.558Z" transform="translate(-80.141 -80.25)"/><path class="c" d="M178.1,174.094a3.2,3.2,0,1,0,1.731,1.731A3.184,3.184,0,0,0,178.1,174.094Zm.972,3.86a2.377,2.377,0,0,1-2.2,1.469,2.412,2.412,0,0,1-.908-.181,2.38,2.38,0,0,1,.908-4.578,2.413,2.413,0,0,1,.908.181,2.38,2.38,0,0,1,1.288,3.109Z" transform="translate(-166.875 -167.047)"/></g></g></svg>