<svg xmlns="http://www.w3.org/2000/svg" viewBox="0 0 29.974 47.036"><defs><style>.a{fill:none;stroke:#39bed3;stroke-width:2px;}</style></defs><g transform="translate(-166.969 -1188.464)"><g transform="translate(98.022 1189.5)"><path class="a" d="M97.764,18.361a.751.751,0,0,0-.793-.322l-8.95,2.015L90.745.857A.751.751,0,0,0,89.4.307L70.123,26.589a.751.751,0,0,0,.743,1.183l9.72-1.809-2.84,18.171a.752.752,0,0,0,.454.81.763.763,0,0,0,.288.057.752.752,0,0,0,.606-.307L97.74,19.216A.749.749,0,0,0,97.764,18.361Z" transform="translate(0 0)"/></g></g></svg>