<svg xmlns="http://www.w3.org/2000/svg" viewBox="0 0 35.476 40.017"><defs><style>.a{fill:none;stroke:#39bed3;stroke-width:1.5px;}</style></defs><g transform="translate(-451.239 -1192.885)"><g transform="translate(423.48 1232.141) rotate(-90)"><g transform="translate(0 28.52)"><path class="a" d="M38.211,34.4a5.627,5.627,0,0,0-7.8-1.42l-12.968,9.08-4.715-3.3a6.818,6.818,0,1,0-2.87,2.7L15.636,45.5,9.861,49.541a6.826,6.826,0,1,0,2.87,2.7l4.715-3.3,12.967,9.08a5.627,5.627,0,0,0,7.8-1.42L22.359,45.5ZM6.838,38.9a3.537,3.537,0,1,1,3.537-3.537A3.537,3.537,0,0,1,6.838,38.9Zm0,20.279a3.537,3.537,0,1,1,3.537-3.537A3.537,3.537,0,0,1,6.838,59.174Z" transform="translate(0 -28.52)"/></g></g></g></svg>