<svg xmlns="http://www.w3.org/2000/svg" viewBox="0 0 45 45"><defs><style>.a,.b{fill:#39bed3;}.a{opacity:0.08;}</style></defs><g transform="translate(-925 -905)"><circle class="a" cx="22.5" cy="22.5" r="22.5" transform="translate(925 905)"/><g transform="translate(933 918)"><path class="b" d="M36.37,0a9.67,9.67,0,1,0,9.67,9.67A9.671,9.671,0,0,0,36.37,0Zm0,17.852a8.209,8.209,0,1,1,8.209-8.209A8.214,8.214,0,0,1,36.37,17.852Z" transform="translate(-21.04)"/><path class="b" d="M12.578,24.061H11.091a.7.7,0,0,1-.691-.691v-.08a.7.7,0,0,1,.691-.691h1.488a.7.7,0,0,1,.691.691v.08A.686.686,0,0,1,12.578,24.061Z" transform="translate(-9.07 -16.596)"/><path class="b" d="M6.086,33.6H8.929a.7.7,0,0,1,.691.691v.08a.7.7,0,0,1-.691.691H6.086A.7.7,0,0,1,5.4,34.37v-.08A.67.67,0,0,1,6.086,33.6Z" transform="translate(-5.394 -24.674)"/><path class="b" d="M11.091,44.6h1.488a.7.7,0,0,1,.691.691v.08a.7.7,0,0,1-.691.691H11.091a.7.7,0,0,1-.691-.691v-.08A.7.7,0,0,1,11.091,44.6Z" transform="translate(-9.07 -32.752)"/><path class="b" d="M64.076,25.365l-.345-.239-2.869-1.939V18.431h0a.581.581,0,0,0-.584-.531h-.292a.581.581,0,0,0-.584.531h0v5.5l3.082,2.1.053.053.717.478a.6.6,0,0,0,.824-.159l.159-.239A.562.562,0,0,0,64.076,25.365Z" transform="translate(-45.053 -13.145)"/></g></g></svg>