<svg xmlns="http://www.w3.org/2000/svg" viewBox="0 0 45 45"><defs><style>.a{fill:rgba(72,135,250,0.1);}.b{fill:#4887fa;}.c{fill:none;stroke:#4887fa;stroke-miterlimit:10;stroke-width:1.5px;}</style></defs><g transform="translate(-950 -558)"><g transform="translate(950 558)"><g transform="translate(0)"><circle class="a" cx="22.5" cy="22.5" r="22.5"/></g></g><g transform="translate(960 569)"><g transform="translate(0 0)"><path class="b" d="M292.511,41.329h-1.236V39.989a.481.481,0,0,0-.438-.489h-.8a.448.448,0,0,0-.438.489v1.339h-1.262a.448.448,0,0,0-.438.489v.876a.481.481,0,0,0,.438.489H289.6v1.339a.481.481,0,0,0,.438.489h.8a.448.448,0,0,0,.438-.489V43.184h1.262a.448.448,0,0,0,.438-.489v-.876A.468.468,0,0,0,292.511,41.329Z" transform="translate(-277.904 -36.673)"/><g transform="translate(0)"><path class="c" d="M273.672,34.678l-11.437-8.346a.975.975,0,0,0-1.262,0l-11.463,8.32a1.058,1.058,0,0,0,.618,1.88h2.087V48a.973.973,0,0,0,1.03,1.03h16.692a.973.973,0,0,0,1.03-1.03V36.558h2.087C273.981,36.558,274.522,35.193,273.672,34.678Z" transform="translate(-249.097 -26.1)"/><line class="c" x2="20.041" transform="translate(2.654 10.458)"/></g></g></g></g></svg>