<svg xmlns="http://www.w3.org/2000/svg" viewBox="0 0 45 45"><defs><style>.a{fill:rgba(72,135,250,0.1);}.b{fill:#4887fa;stroke:#4887fa;stroke-miterlimit:10;stroke-width:0.65px;}</style></defs><g transform="translate(-538 -444)"><g transform="translate(538 444)"><g transform="translate(0)"><circle class="a" cx="22.5" cy="22.5" r="22.5"/></g></g><path class="b" d="M79.927,217.594a9.553,9.553,0,0,0,2.251-5.725,5.669,5.669,0,0,0-11.339,0,9.553,9.553,0,0,0,2.251,5.725A10.166,10.166,0,0,0,66,229.684H87.1A10.358,10.358,0,0,0,79.927,217.594ZM76.481,206.95a4.921,4.921,0,0,1,4.474,2.89,3.422,3.422,0,0,1-3.807-.167,4.033,4.033,0,0,0-4.28.167l-1.139.806A4.9,4.9,0,0,1,76.481,206.95ZM71.562,211.7l1.723-1.223a3.212,3.212,0,0,1,3.474-.139,4.162,4.162,0,0,0,4.447.25,4.946,4.946,0,0,1,.167,1.306c0,2.7-2.2,6.809-4.919,6.809s-4.919-4.113-4.919-6.809A.542.542,0,0,0,71.562,211.7Zm14.813,17.231H66.56a9.454,9.454,0,0,1,3.557-9.032,10.835,10.835,0,0,0,.945,3.057,3.037,3.037,0,0,0-1.251,3.557l.639,1.779,1.417-.5-.25-.723-.723.25-.389-1.084a2.268,2.268,0,0,1,4.28-1.5l.361,1.084-.723.25.25.723,1.417-.5-.639-1.779a3.032,3.032,0,0,0-3.78-1.89,9.5,9.5,0,0,1-.917-3.224,9.406,9.406,0,0,1,2.807-1.2,3.9,3.9,0,0,0,5.669,0,9.76,9.76,0,0,1,3.224,1.473,9.726,9.726,0,0,1-1.112,2.862,1.89,1.89,0,0,0-.417-.056,1.524,1.524,0,0,0-1.529,1.529,1.507,1.507,0,0,0,1.529,1.529,1.533,1.533,0,0,0,1.084-2.612,10.6,10.6,0,0,0,1.112-2.724A9.351,9.351,0,0,1,86.375,228.933Zm-4.586-4.919a.75.75,0,1,1-.75-.75A.747.747,0,0,1,81.789,224.014Z" transform="translate(484.038 247.363)"/></g></svg>