<svg xmlns="http://www.w3.org/2000/svg" viewBox="0 0 16.6 11.054"><defs><style>.a{fill:#23334d;stroke:#fff;stroke-linecap:round;stroke-linejoin:round;stroke-width:1.6px;}</style></defs><g transform="translate(-430.205 -3073.725)"><g transform="translate(446.005 3166.205) rotate(180)"><path class="a" d="M14.644,83.3l-.722-.722a1.233,1.233,0,0,0-.876-.356,1.18,1.18,0,0,0-.867.356L7.5,87.261,2.821,82.582a1.18,1.18,0,0,0-.867-.356,1.233,1.233,0,0,0-.876.356L.366,83.3A1.2,1.2,0,0,0,0,84.181a1.144,1.144,0,0,0,.366.866l6.268,6.268a1.145,1.145,0,0,0,.867.366,1.2,1.2,0,0,0,.876-.366l6.268-6.268A1.18,1.18,0,0,0,15,84.181,1.233,1.233,0,0,0,14.644,83.3Z" transform="translate(0)"/></g></g></svg>