<?xml version="1.0" encoding="utf-8"?>
<!-- Generator: Adobe Illustrator 22.1.0, SVG Export Plug-In . SVG Version: 6.00 Build 0)  -->
<svg version="1.1" id="Camada_1" xmlns="http://www.w3.org/2000/svg" xmlns:xlink="http://www.w3.org/1999/xlink" x="0px" y="0px"
	 viewBox="0 0 1248 1248" style="enable-background:new 0 0 1248 1248;" xml:space="preserve">
<style type="text/css">
	.st0{fill:#23334D;}
</style>
<path class="st0" d="M355.2,709.8c-0.9-7.6,3-8.4,9.9-7.1c35.6,6.9,71.4,13.4,107.9,11.4c46.2-2.6,89.1-14.2,125.6-44.4
	c8.2-6.7,14.2-15.1,19.2-24.4c2.6-4.7,5-6,8.2-0.4c24.2,41.6,65.2,55.5,108.3,64.9c45.5,9.9,90.8,3.9,135.7-5.2
	c19.4-3.9,19.6-4.1,16.8,15.1c-6.5,46.6-27.6,87.4-52,126.7C801.6,899.9,761,948,721.3,997c-39.5,49-70.8,102.9-94.7,161.2
	c-1.3,3-1.3,8.2-5.8,8c-3.7,0-3.9-4.7-5-7.6c-29.3-72.3-71.9-136.4-122.1-195.7c-45.5-53.9-87.8-110-117.4-175
	C365.3,763.1,357.3,737.4,355.2,709.8z"/>
<path class="st0" d="M621.6,79.5c86.1,1.3,156,35.6,209.9,102.9c27.8,34.7,50.1,72.1,58.5,116.3c3.7,18.6,4.5,37.8,11,55.9
	c9.5,27,24.6,48.8,51.4,60.6c6.3,2.8,8.2,6,4.3,12.3c-12.5,20.5-27,39.3-48.1,51.4c-27,15.3-38.8,39.5-41.4,69
	c-1.9,22.4,0.2,44.4,8.2,65.8c4.1,11,2.6,12.9-8.8,12.5c-21.6-0.4-42.9-3.2-63.7-9.7c-6.9-2.2-10.6-4.7-5.8-12.9
	c21.1-35.6,29.1-75.5,34.7-115.9c3-22.4,5-45.3-1.3-67.5c-4.7-16.8-12.1-33-18.6-49.4c-20.9-53.3-27.8-108.3-21.6-165.1
	c3.5-31.5-8.2-52.2-38.4-63.2c-54.2-19.9-107.9-17.9-159.7,8.6c-41,21.1-83.7,36.5-129.2,43.2c-10.4,1.5-12.3,5.4-11.2,15.5
	c5.4,56.3-1.5,111.1-22.9,163.8c-6.7,16.6-15.8,32.4-19,50.3c-6,32.8-1.1,65.2,5.4,97.3c5.8,29.1,15.1,57,30,82.9
	c3.2,5.6,3,9.3-3.7,11.4c-22.9,7.3-46.2,10.1-70.1,10.4c-7.8,0-7.8-4.3-6-10.1c5-15.8,9.3-31.7,9.7-48.5
	c1.1-36.9-7.6-69.3-42.3-89.3c-21.6-12.5-36.2-31.1-48.5-52.2c-2.6-4.7-2.6-7.8,2.8-10.1c40.3-17.7,55.9-52.9,60.4-93
	c7.1-63,36.7-113.7,79-159.2c40.1-43.2,88.9-69.9,146.3-81.1C589,79.8,605.2,78.9,621.6,79.5z"/>
<path class="st0" d="M519.6,503.1c28.3,0,49-20.5,49-48.8c0-28.3-21.6-50.1-49.6-49.8c-27.8,0.2-48.8,21.4-49,49.4
	C469.9,483.2,490.2,503.3,519.6,503.1z M721.5,503.1c28.5,0,49.6-20.3,49.8-48.1c0.2-28.5-21.1-50.3-49.2-50.5
	c-27.8,0-49.4,21.1-49.6,48.8C672.3,482.8,692.4,503.1,721.5,503.1z M722.2,536.3c-39.7,0-71.4-24.8-80.7-62.6
	c-3.5-13.6-5.4-15.1-21.1-15.1c-15.5,0-16.8,0.9-20.7,15.5c-8.6,32.8-39.5,60.4-69.7,62.1c-42.5,2.4-75.1-17-88.5-52.4
	c-15.3-40.8,3.5-86.5,43.6-105.1c39.3-18.1,86.3-2.2,107.2,37.1c3.9,7.3,7.6,10.4,16.4,9.7c10.6-1.1,22.2,2.8,32.2,0
	c9.9-2.8,11-16.4,17.9-24.2c24.2-27.4,62.1-37.3,94.9-23.7c33.9,14,54.2,48.1,51.1,85.7C802,496.2,775,527,742,535.2
	C734.9,536.5,728.2,535.9,722.2,536.3z"/>
<path class="st0" d="M1248,558.1c-21.1,9.7-42.1,19.6-63.4,29.1c-105.1,46.6-214.5,80.7-327.1,102.9c-42.5,8.4-85.2,11.9-128.2,1.7
	c-30.2-7.3-57.6-20.1-81.6-39.7c-14.5-11.9-17.9-27.6-12.7-44.9c13.4-45.7,64.5-59.3,100.3-27c5.6,5,10.8,10.8,14.7,17.3
	c12.5,21.6,32.8,31.5,55.7,37.1c54.4,13.4,109,9.3,163.6,1.1c91.9-14,178.9-44.9,265.8-76.2c3.9-1.5,8-2.8,12.1-4.1
	C1247.4,556.4,1247.8,557.2,1248,558.1z"/>
<path class="st0" d="M-0.6,556.8c9.1,3.2,17,6,25,8.8c72.7,25.9,145.6,51.4,222,65.6c45.7,8.4,91.7,14,138.1,11.7
	c26.3-1.3,52.2-5.4,76.6-16.2c12.5-5.6,22.7-13.6,30.2-25.2c8-12.1,16.8-23.5,30-30.4c20.5-11,41.9-11.7,61.7,0
	c19,11.2,27.8,29.6,27.8,51.6c0,11.9-5.4,21.6-14.5,28.9c-36.5,30.6-79.4,44.2-126.2,46.2c-53.1,2.2-104-11.2-154.9-23.5
	C209.3,648.7,107.5,611.8,9.5,564.6c-2.8-1.3-5.6-3-8.4-4.5C0.2,559.8,0.2,559-0.6,556.8z"/>
</svg>
